<?xml version="1.0" standalone="no"?>
<!DOCTYPE svg PUBLIC "-//W3C//DTD SVG 1.1//EN" "http://www.w3.org/Graphics/SVG/1.1/DTD/svg11.dtd">
<svg version="1.1" xmlns="http://www.w3.org/2000/svg" viewBox="0 0 816.3369917872474 764.5894030139316" width="816.3369917872474" height="764.5894030139316"><!-- svg-source:excalidraw --><metadata></metadata><defs><style class="style-fonts">
      </style></defs><g stroke-linecap="round"><g transform="translate(11.947848550485674 672.2977096140518) rotate(0 299.98960694745176 -0.08618324520332976)"><path d="M-0.8 0.52 C99.34 0.4, 500.51 -0.79, 600.77 -0.68 M0.99 -0.26 C101.04 -0.22, 500.32 0.55, 600.23 0.49" stroke="#1e1e1e" stroke-width="2" fill="none"></path></g><g transform="translate(11.947848550485674 672.2977096140518) rotate(0 299.98960694745176 -0.08618324520332976)"><path d="M576.73 9.02 C584.55 7.95, 589.49 5.5, 600.23 0.49 M576.73 9.02 C586.91 6.3, 596.23 2.16, 600.23 0.49" stroke="#1e1e1e" stroke-width="2" fill="none"></path></g><g transform="translate(11.947848550485674 672.2977096140518) rotate(0 299.98960694745176 -0.08618324520332976)"><path d="M576.75 -8.08 C584.56 -4.1, 589.5 -1.48, 600.23 0.49 M576.75 -8.08 C587 -4.05, 596.31 -1.44, 600.23 0.49" stroke="#1e1e1e" stroke-width="2" fill="none"></path></g></g><mask></mask><g stroke-linecap="round"><g transform="translate(11.15259919043092 671.6072023255831) rotate(0 0.08245432499404615 -300.4358250515303)"><path d="M-1.12 0.34 C-1.21 -99.59, -1.08 -499.54, -0.97 -599.4 M0.49 -0.53 C0.8 -100.82, 1.56 -501.2, 1.24 -601.21" stroke="#1e1e1e" stroke-width="2" fill="none"></path></g><g transform="translate(11.15259919043092 671.6072023255831) rotate(0 0.08245432499404615 -300.4358250515303)"><path d="M9.8 -577.72 C8.07 -585.6, 6.25 -590.91, 1.24 -601.21 M9.8 -577.72 C7.05 -587.37, 1.99 -596.28, 1.24 -601.21" stroke="#1e1e1e" stroke-width="2" fill="none"></path></g><g transform="translate(11.15259919043092 671.6072023255831) rotate(0 0.08245432499404615 -300.4358250515303)"><path d="M-7.3 -577.72 C-4.52 -585.43, -1.84 -590.75, 1.24 -601.21 M-7.3 -577.72 C-3.26 -587.38, -1.53 -596.3, 1.24 -601.21" stroke="#1e1e1e" stroke-width="2" fill="none"></path></g></g><mask></mask><g transform="translate(28.28416439579223 30.438868080781447) rotate(0 21.465578869180604 16.072247951597774)" stroke="none"><path fill="#1e1e1e" d="M -0.18,-1.37 Q -0.18,-1.37 0.64,-2.28 1.47,-3.19 2.47,-4.19 3.47,-5.20 4.90,-6.85 6.34,-8.50 7.59,-10.24 8.84,-11.98 9.42,-12.90 10.00,-13.82 10.53,-14.77 11.07,-15.72 11.59,-16.67 12.12,-17.62 12.94,-19.04 13.77,-20.45 13.99,-20.95 14.21,-21.45 14.41,-21.76 14.60,-22.07 14.87,-22.33 15.13,-22.58 15.45,-22.77 15.77,-22.95 16.12,-23.06 16.48,-23.16 16.84,-23.18 17.21,-23.19 17.57,-23.12 17.93,-23.05 18.27,-22.89 18.60,-22.73 18.88,-22.50 19.17,-22.27 19.39,-21.98 19.61,-21.68 19.76,-21.34 19.91,-21.01 19.97,-20.64 20.03,-20.28 20.00,-19.91 19.97,-19.55 19.85,-19.20 19.74,-18.85 19.69,-20.03 19.65,-21.22 19.80,-20.06 19.95,-18.90 19.84,-17.70 19.73,-16.50 19.63,-14.62 19.53,-12.74 19.47,-11.67 19.41,-10.59 19.37,-9.39 19.33,-8.19 19.30,-6.98 19.27,-5.77 19.26,-4.55 19.25,-3.33 19.25,-2.10 19.26,-0.86 19.49,0.99 19.72,2.85 20.12,3.86 20.52,4.88 21.33,3.86 22.14,2.84 22.91,1.93 23.69,1.01 24.34,0.05 24.99,-0.90 25.67,-2.02 26.36,-3.15 27.08,-4.35 27.80,-5.55 28.32,-6.59 28.84,-7.63 29.35,-8.70 29.86,-9.77 30.45,-11.28 31.03,-12.79 31.29,-13.91 31.55,-15.04 31.55,-15.16 31.55,-15.28 31.66,-15.65 31.77,-16.01 31.97,-16.33 32.17,-16.65 32.44,-16.92 32.71,-17.19 33.03,-17.38 33.36,-17.58 33.72,-17.69 34.08,-17.80 34.46,-17.82 34.84,-17.84 35.21,-17.77 35.58,-17.70 35.93,-17.54 36.27,-17.39 36.57,-17.15 36.87,-16.92 37.10,-16.62 37.33,-16.32 37.49,-15.97 37.64,-15.63 37.71,-15.26 37.77,-14.88 37.75,-14.50 37.72,-14.13 37.67,-12.67 37.61,-11.20 37.65,-9.49 37.69,-7.77 37.76,-6.66 37.83,-5.54 37.91,-4.30 37.99,-3.06 38.12,-1.55 38.25,-0.03 38.42,1.57 38.59,3.19 38.81,5.04 39.04,6.90 39.30,8.87 39.56,10.84 39.81,12.91 40.06,14.98 40.31,17.23 40.55,19.48 40.78,21.58 41.01,23.68 41.17,25.79 41.32,27.90 41.43,30.01 41.55,32.12 41.61,34.07 41.66,36.02 41.65,37.89 41.64,39.75 41.44,41.53 41.24,43.31 40.78,44.93 40.32,46.55 39.57,48.04 38.82,49.53 37.80,50.78 36.78,52.03 35.61,52.95 34.44,53.87 33.06,54.50 31.67,55.12 30.33,55.39 28.98,55.67 27.46,55.42 25.95,55.17 24.60,54.26 23.26,53.35 22.42,52.17 21.59,50.99 21.09,49.52 20.59,48.04 20.39,46.25 20.20,44.46 20.39,42.50 20.58,40.55 21.21,38.53 21.84,36.50 22.79,34.59 23.74,32.68 24.88,31.03 26.03,29.39 27.51,27.91 28.99,26.42 30.54,25.33 32.10,24.23 33.64,23.50 35.17,22.78 36.61,22.29 38.05,21.80 40.40,21.95 42.75,22.10 42.96,22.06 43.17,22.03 43.38,22.06 43.59,22.09 43.78,22.19 43.97,22.29 44.11,22.44 44.26,22.59 44.35,22.78 44.44,22.98 44.47,23.19 44.49,23.40 44.45,23.61 44.41,23.81 44.30,24.00 44.19,24.18 44.03,24.32 43.87,24.46 43.67,24.54 43.48,24.62 43.27,24.63 43.05,24.65 42.85,24.59 42.64,24.54 42.47,24.42 42.29,24.30 42.16,24.14 42.03,23.97 41.96,23.77 41.89,23.57 41.89,23.35 41.88,23.14 41.95,22.94 42.02,22.74 42.14,22.57 42.27,22.40 42.44,22.28 42.62,22.15 42.82,22.10 43.03,22.04 43.24,22.05 43.45,22.06 43.65,22.13 43.85,22.21 44.01,22.34 44.18,22.48 44.29,22.66 44.40,22.84 44.45,23.05 44.49,23.26 44.47,23.47 44.45,23.68 44.36,23.87 44.28,24.07 44.13,24.22 43.99,24.38 43.80,24.48 43.61,24.58 43.61,24.58 43.61,24.58 42.05,26.10 40.49,27.61 39.29,28.22 38.09,28.84 37.04,29.36 36.00,29.87 34.90,30.62 33.81,31.36 32.74,32.38 31.66,33.40 30.79,34.61 29.92,35.83 29.18,37.24 28.44,38.66 27.96,40.02 27.49,41.37 27.31,42.62 27.14,43.86 27.34,45.62 27.54,47.38 28.35,48.09 29.16,48.80 30.45,48.22 31.74,47.63 32.87,46.11 34.00,44.59 34.36,43.55 34.71,42.51 34.90,41.08 35.08,39.66 35.12,37.92 35.16,36.18 35.12,34.32 35.09,32.45 34.99,30.39 34.89,28.33 34.77,26.34 34.65,24.35 34.44,22.25 34.22,20.15 34.00,17.94 33.77,15.73 33.53,13.69 33.30,11.66 33.04,9.66 32.79,7.66 32.55,5.74 32.32,3.82 32.16,2.16 31.99,0.49 31.86,-1.08 31.72,-2.66 31.65,-3.91 31.57,-5.16 31.50,-6.32 31.43,-7.48 31.38,-8.57 31.33,-9.66 31.35,-11.25 31.36,-12.85 31.45,-14.07 31.55,-15.28 31.66,-15.64 31.77,-16.01 31.97,-16.33 32.17,-16.65 32.44,-16.92 32.71,-17.19 33.03,-17.38 33.36,-17.58 33.72,-17.69 34.08,-17.80 34.46,-17.82 34.84,-17.84 35.21,-17.77 35.58,-17.70 35.93,-17.55 36.27,-17.39 36.57,-17.15 36.87,-16.92 37.10,-16.62 37.33,-16.32 37.49,-15.97 37.64,-15.63 37.71,-15.26 37.77,-14.88 37.75,-14.50 37.72,-14.13 37.65,-13.63 37.57,-13.13 37.24,-11.91 36.92,-10.68 36.21,-8.88 35.51,-7.08 34.97,-5.94 34.42,-4.80 33.79,-3.57 33.17,-2.33 32.44,-1.11 31.71,0.10 30.93,1.37 30.15,2.64 29.30,3.86 28.45,5.09 27.48,6.22 26.50,7.35 25.56,8.24 24.61,9.14 23.49,9.85 22.37,10.56 20.91,10.76 19.46,10.96 18.41,10.59 17.36,10.22 16.10,8.80 14.85,7.38 14.23,5.58 13.61,3.77 13.45,2.67 13.29,1.58 13.20,0.36 13.11,-0.85 13.11,-2.12 13.11,-3.40 13.12,-4.67 13.14,-5.93 13.17,-7.17 13.21,-8.40 13.25,-9.67 13.30,-10.93 13.41,-12.99 13.52,-15.06 13.97,-16.99 14.41,-18.93 14.31,-20.19 14.21,-21.45 14.41,-21.76 14.60,-22.07 14.87,-22.33 15.13,-22.58 15.45,-22.77 15.77,-22.95 16.12,-23.06 16.47,-23.16 16.84,-23.18 17.21,-23.19 17.57,-23.12 17.93,-23.05 18.27,-22.89 18.60,-22.73 18.88,-22.50 19.17,-22.27 19.39,-21.98 19.61,-21.68 19.76,-21.35 19.90,-21.01 19.97,-20.64 20.03,-20.28 20.00,-19.91 19.97,-19.55 19.85,-19.20 19.74,-18.85 19.39,-18.12 19.05,-17.39 18.24,-16.02 17.44,-14.65 16.90,-13.69 16.36,-12.73 15.75,-11.65 15.13,-10.57 14.48,-9.54 13.83,-8.52 13.13,-7.52 12.43,-6.51 11.69,-5.54 10.95,-4.57 10.15,-3.63 9.34,-2.69 8.35,-1.63 7.35,-0.57 6.39,0.22 5.42,1.02 3.99,1.84 2.56,2.65 1.37,2.01 0.18,1.37 0.01,1.38 -0.15,1.38 -0.31,1.34 -0.47,1.30 -0.62,1.22 -0.77,1.15 -0.90,1.04 -1.03,0.93 -1.12,0.79 -1.22,0.65 -1.28,0.50 -1.34,0.34 -1.36,0.18 -1.39,0.01 -1.37,-0.15 -1.35,-0.31 -1.29,-0.47 -1.23,-0.63 -1.14,-0.77 -1.05,-0.91 -0.92,-1.02 -0.80,-1.13 -0.65,-1.21 -0.50,-1.29 -0.34,-1.33 -0.18,-1.37 -0.18,-1.37 L -0.18,-1.37 Z"></path></g><g transform="translate(111.75072563564038 19.15079324496878) rotate(0 -5.900499721134452 12.57076927439175)" stroke="none"><path fill="#1e1e1e" d="M -0.77,1.41 Q -0.77,1.41 -1.97,1.38 -3.17,1.35 -4.47,2.25 -5.78,3.14 -6.55,4.57 -7.32,6.00 -8.10,7.79 -8.89,9.58 -9.38,11.18 -9.86,12.79 -10.11,14.18 -10.36,15.58 -10.42,16.80 -10.49,18.03 -9.82,19.73 -9.14,21.43 -7.85,22.30 -6.56,23.17 -3.81,24.09 -1.05,25.02 0.48,25.02 2.03,25.02 2.24,25.05 2.45,25.08 2.64,25.18 2.83,25.28 2.98,25.43 3.12,25.58 3.22,25.77 3.31,25.96 3.33,26.17 3.36,26.39 3.32,26.59 3.27,26.80 3.17,26.99 3.06,27.17 2.90,27.31 2.74,27.45 2.54,27.53 2.35,27.61 2.14,27.63 1.92,27.64 1.72,27.59 1.51,27.53 1.34,27.42 1.16,27.30 1.03,27.13 0.90,26.97 0.83,26.77 0.75,26.57 0.75,26.35 0.75,26.14 0.81,25.94 0.88,25.74 1.00,25.56 1.13,25.39 1.30,25.27 1.48,25.15 1.68,25.09 1.89,25.03 2.10,25.04 2.31,25.05 2.51,25.12 2.71,25.20 2.87,25.33 3.04,25.47 3.15,25.65 3.26,25.83 3.31,26.04 3.36,26.24 3.34,26.46 3.32,26.67 3.23,26.86 3.15,27.06 3.00,27.21 2.86,27.37 2.67,27.47 2.48,27.57 2.28,27.61 2.07,27.65 2.07,27.65 2.07,27.65 0.52,27.69 -1.01,27.74 -3.43,28.40 -5.86,29.06 -7.48,28.72 -9.10,28.38 -10.68,27.60 -12.27,26.81 -13.43,25.57 -14.59,24.32 -15.32,22.79 -16.06,21.26 -16.37,19.48 -16.69,17.70 -16.58,16.06 -16.46,14.42 -16.11,12.68 -15.77,10.93 -15.13,8.99 -14.49,7.04 -13.53,4.98 -12.57,2.92 -11.35,0.97 -10.13,-0.98 -8.60,-2.32 -7.08,-3.67 -4.85,-3.91 -2.63,-4.16 -1.60,-3.78 -0.58,-3.41 0.09,-2.41 0.77,-1.41 0.93,-1.29 1.09,-1.18 1.21,-1.03 1.34,-0.89 1.43,-0.71 1.51,-0.54 1.56,-0.35 1.60,-0.16 1.60,0.03 1.59,0.22 1.54,0.41 1.49,0.60 1.40,0.77 1.30,0.94 1.17,1.08 1.04,1.22 0.88,1.33 0.72,1.44 0.53,1.50 0.35,1.57 0.16,1.59 -0.03,1.61 -0.22,1.58 -0.41,1.55 -0.59,1.48 -0.77,1.41 -0.77,1.41 L -0.77,1.41 Z"></path></g><g transform="translate(136.9789961167586 24.02506083075224) rotate(0 -5.045338185211847 24.382729871464505)" stroke="none"><path fill="#1e1e1e" d="M -0.79,1.13 Q -0.79,1.13 -2.16,1.10 -3.53,1.06 -4.89,1.59 -6.25,2.12 -7.51,3.84 -8.76,5.55 -9.21,7.13 -9.65,8.71 -8.72,9.29 -7.79,9.86 -6.92,9.22 -6.04,8.58 -4.81,7.19 -3.59,5.79 -2.98,4.92 -2.37,4.05 -1.73,2.58 -1.10,1.10 1.26,0.94 3.63,0.78 3.78,1.85 3.93,2.91 3.82,5.26 3.70,7.60 3.78,9.16 3.86,10.71 4.00,12.55 4.14,14.38 4.33,16.58 4.52,18.77 4.73,21.13 4.93,23.49 5.14,25.80 5.35,28.11 5.48,30.49 5.62,32.87 5.67,34.95 5.72,37.03 5.71,38.87 5.69,40.72 5.37,43.21 5.05,45.69 4.65,47.24 4.24,48.79 3.56,50.03 2.88,51.27 1.98,52.12 1.08,52.97 -0.16,53.45 -1.40,53.94 -2.91,53.73 -4.41,53.51 -5.57,52.79 -6.74,52.07 -7.81,51.01 -8.87,49.95 -9.78,48.81 -10.68,47.66 -11.50,46.33 -12.32,45.00 -12.93,43.51 -13.54,42.01 -13.90,40.65 -14.25,39.29 -14.42,37.92 -14.59,36.54 -14.55,35.28 -14.52,34.02 -14.20,32.82 -13.88,31.62 -13.06,30.43 -12.24,29.24 -10.12,27.82 -7.99,26.41 -7.83,26.27 -7.66,26.14 -7.46,26.06 -7.27,25.99 -7.05,25.98 -6.84,25.97 -6.64,26.03 -6.43,26.09 -6.26,26.22 -6.09,26.34 -5.96,26.51 -5.84,26.68 -5.77,26.88 -5.71,27.09 -5.71,27.30 -5.72,27.51 -5.79,27.71 -5.86,27.91 -5.99,28.08 -6.12,28.25 -6.30,28.36 -6.48,28.48 -6.68,28.53 -6.89,28.58 -7.10,28.57 -7.31,28.55 -7.51,28.47 -7.71,28.39 -7.87,28.25 -8.02,28.11 -8.13,27.92 -8.24,27.74 -8.28,27.53 -8.32,27.32 -8.29,27.11 -8.27,26.90 -8.17,26.71 -8.08,26.52 -7.93,26.37 -7.78,26.21 -7.59,26.12 -7.40,26.02 -7.19,25.99 -6.98,25.96 -6.77,26.00 -6.56,26.04 -6.38,26.14 -6.19,26.24 -6.05,26.40 -5.91,26.56 -5.82,26.75 -5.74,26.95 -5.72,27.16 -5.70,27.37 -5.75,27.58 -5.80,27.78 -5.91,27.96 -6.02,28.14 -6.02,28.14 -6.02,28.14 -7.07,30.54 -8.12,32.94 -8.18,34.36 -8.25,35.79 -7.90,37.72 -7.56,39.64 -7.18,40.65 -6.79,41.66 -6.19,42.68 -5.58,43.70 -4.89,44.59 -4.21,45.49 -2.91,46.31 -1.62,47.13 -1.29,45.98 -0.97,44.83 -0.63,42.73 -0.30,40.62 -0.27,38.90 -0.23,37.18 -0.28,35.18 -0.33,33.18 -0.44,30.91 -0.55,28.64 -0.76,26.33 -0.96,24.01 -1.17,21.64 -1.38,19.28 -1.57,17.05 -1.76,14.83 -1.91,12.92 -2.05,11.00 -2.13,9.22 -2.22,7.44 -2.18,5.99 -2.13,4.54 -2.03,3.31 -1.93,2.09 -1.78,1.02 -1.62,-0.04 -0.81,-1.40 0.00,-2.75 2.05,-2.73 4.11,-2.71 4.62,-1.76 5.13,-0.81 4.99,0.53 4.86,1.87 4.25,3.50 3.64,5.12 3.06,6.29 2.49,7.46 1.75,8.50 1.01,9.54 0.13,10.60 -0.73,11.66 -1.72,12.58 -2.71,13.51 -3.97,14.28 -5.23,15.06 -6.72,15.41 -8.22,15.76 -9.46,15.58 -10.71,15.39 -11.79,14.85 -12.87,14.32 -13.81,13.34 -14.74,12.36 -15.17,11.10 -15.60,9.84 -15.54,8.62 -15.48,7.40 -15.17,6.14 -14.87,4.89 -14.28,3.56 -13.70,2.23 -12.86,1.01 -12.03,-0.20 -11.15,-1.22 -10.28,-2.25 -9.27,-3.11 -8.25,-3.96 -6.86,-4.47 -5.48,-4.98 -4.21,-4.89 -2.94,-4.80 -1.60,-4.26 -0.25,-3.72 0.27,-2.42 0.79,-1.13 0.91,-1.02 1.04,-0.91 1.13,-0.77 1.23,-0.63 1.28,-0.47 1.34,-0.32 1.36,-0.15 1.38,0.01 1.36,0.17 1.34,0.34 1.28,0.49 1.22,0.65 1.12,0.78 1.02,0.92 0.90,1.03 0.77,1.14 0.62,1.22 0.48,1.29 0.31,1.33 0.15,1.37 -0.01,1.37 -0.17,1.37 -0.33,1.33 -0.50,1.29 -0.64,1.21 -0.79,1.13 -0.79,1.13 L -0.79,1.13 Z"></path></g><g transform="translate(164.34560122542678 31.378918734803165) rotate(0 -3.5916688778140724 5.045804871933825)" stroke="none"><path fill="#1e1e1e" d="M -2.01,0.68 Q -2.01,0.68 -2.81,-0.39 -3.61,-1.47 -4.72,-1.92 -5.83,-2.36 -6.88,-1.30 -7.93,-0.23 -8.92,1.71 -9.92,3.66 -10.28,4.81 -10.65,5.97 -10.83,7.02 -11.01,8.07 -9.42,7.39 -7.83,6.71 -7.13,5.85 -6.43,4.98 -5.86,4.01 -5.29,3.03 -4.75,2.05 -4.21,1.06 -3.45,-0.42 -2.69,-1.91 -2.41,-2.49 -2.12,-3.07 -1.91,-3.36 -1.70,-3.64 -1.43,-3.88 -1.16,-4.11 -0.84,-4.27 -0.52,-4.42 -0.17,-4.50 0.17,-4.58 0.53,-4.57 0.88,-4.56 1.23,-4.47 1.57,-4.38 1.88,-4.20 2.20,-4.03 2.46,-3.79 2.72,-3.55 2.92,-3.25 3.11,-2.95 3.23,-2.61 3.35,-2.28 3.39,-1.92 3.42,-1.57 3.37,-1.21 3.32,-0.86 3.19,-0.53 3.05,-0.20 3.20,-1.30 3.35,-2.41 3.42,-1.31 3.49,-0.21 3.36,1.55 3.24,3.32 3.22,4.43 3.20,5.55 3.21,6.63 3.22,7.72 3.65,9.32 4.08,10.92 5.41,11.97 6.73,13.01 6.95,12.99 7.16,12.96 7.36,13.01 7.57,13.05 7.75,13.16 7.94,13.27 8.08,13.43 8.21,13.59 8.29,13.79 8.37,13.99 8.39,14.20 8.40,14.41 8.34,14.62 8.29,14.82 8.17,15.00 8.05,15.17 7.88,15.30 7.71,15.43 7.51,15.50 7.31,15.57 7.10,15.57 6.89,15.57 6.69,15.51 6.48,15.44 6.31,15.31 6.14,15.18 6.02,15.01 5.90,14.83 5.85,14.63 5.79,14.43 5.80,14.21 5.81,14.00 5.89,13.80 5.96,13.61 6.10,13.44 6.24,13.28 6.42,13.17 6.60,13.06 6.81,13.01 7.01,12.97 7.23,12.99 7.44,13.01 7.63,13.10 7.82,13.19 7.98,13.33 8.13,13.48 8.23,13.66 8.34,13.85 8.37,14.06 8.41,14.27 8.37,14.48 8.34,14.69 8.24,14.88 8.14,15.07 7.99,15.21 7.84,15.36 7.64,15.45 7.45,15.54 7.45,15.54 7.45,15.54 5.41,16.54 3.36,17.54 2.12,17.00 0.89,16.46 0.14,15.67 -0.60,14.88 -1.13,13.94 -1.66,12.99 -2.07,11.80 -2.48,10.60 -2.70,9.20 -2.92,7.81 -2.94,6.61 -2.95,5.41 -2.92,4.18 -2.89,2.95 -2.58,1.23 -2.27,-0.47 -2.20,-1.77 -2.12,-3.07 -1.91,-3.36 -1.70,-3.64 -1.43,-3.88 -1.16,-4.11 -0.84,-4.26 -0.52,-4.42 -0.17,-4.50 0.17,-4.58 0.53,-4.57 0.88,-4.56 1.23,-4.47 1.57,-4.38 1.88,-4.20 2.20,-4.03 2.46,-3.79 2.72,-3.55 2.92,-3.25 3.11,-2.95 3.23,-2.61 3.35,-2.28 3.39,-1.92 3.42,-1.57 3.37,-1.21 3.32,-0.86 3.19,-0.53 3.05,-0.20 2.73,0.31 2.41,0.83 1.62,2.35 0.84,3.86 0.25,4.91 -0.32,5.97 -1.11,7.29 -1.91,8.61 -2.83,9.77 -3.75,10.93 -4.88,12.00 -6.00,13.06 -7.39,13.91 -8.79,14.77 -10.19,14.96 -11.59,15.15 -12.90,14.71 -14.22,14.27 -15.19,13.30 -16.16,12.32 -16.60,10.94 -17.03,9.56 -16.95,8.28 -16.86,7.00 -16.59,5.56 -16.31,4.13 -15.82,2.64 -15.32,1.16 -14.64,-0.29 -13.95,-1.75 -13.15,-2.99 -12.35,-4.23 -11.36,-5.26 -10.38,-6.29 -9.02,-7.11 -7.65,-7.93 -5.40,-7.97 -3.15,-8.01 -2.13,-7.59 -1.11,-7.16 -0.22,-6.37 0.66,-5.59 1.30,-4.50 1.95,-3.41 1.98,-2.05 2.01,-0.68 2.06,-0.43 2.11,-0.18 2.11,0.07 2.10,0.33 2.03,0.57 1.96,0.82 1.83,1.04 1.70,1.26 1.53,1.45 1.35,1.64 1.13,1.77 0.92,1.91 0.67,1.99 0.43,2.08 0.18,2.10 -0.07,2.12 -0.32,2.08 -0.58,2.04 -0.81,1.94 -1.05,1.84 -1.26,1.69 -1.46,1.54 -1.62,1.34 -1.79,1.14 -1.90,0.91 -2.01,0.68 -2.01,0.68 L -2.01,0.68 Z"></path></g><g transform="translate(188.63293554438394 26.84684021318128) rotate(0 -4.490196379903978 9.065006652404321)" stroke="none"><path fill="#1e1e1e" d="M -0.66,1.28 Q -0.66,1.28 -1.86,1.45 -3.07,1.63 -4.16,2.13 -5.25,2.63 -4.13,3.58 -3.02,4.54 -1.58,5.67 -0.15,6.80 0.56,7.58 1.28,8.37 2.18,9.96 3.08,11.54 3.19,13.43 3.30,15.32 2.72,16.51 2.15,17.70 0.56,19.25 -1.02,20.81 -2.07,21.32 -3.11,21.83 -4.83,22.24 -6.54,22.64 -8.52,20.36 -10.50,18.07 -10.59,17.88 -10.67,17.68 -10.69,17.47 -10.71,17.26 -10.66,17.05 -10.61,16.85 -10.50,16.67 -10.39,16.49 -10.22,16.35 -10.06,16.22 -9.86,16.14 -9.66,16.07 -9.45,16.06 -9.24,16.05 -9.03,16.11 -8.83,16.17 -8.65,16.30 -8.48,16.42 -8.36,16.59 -8.23,16.76 -8.17,16.96 -8.10,17.17 -8.11,17.38 -8.11,17.59 -8.18,17.79 -8.25,17.99 -8.39,18.16 -8.52,18.33 -8.70,18.44 -8.87,18.56 -9.08,18.61 -9.29,18.66 -9.50,18.65 -9.71,18.63 -9.91,18.55 -10.10,18.47 -10.26,18.33 -10.42,18.19 -10.53,18.00 -10.63,17.82 -10.67,17.61 -10.71,17.40 -10.69,17.19 -10.66,16.98 -10.57,16.79 -10.47,16.60 -10.33,16.45 -10.18,16.29 -9.99,16.20 -9.80,16.10 -9.59,16.07 -9.38,16.04 -9.17,16.08 -8.96,16.12 -8.77,16.22 -8.59,16.32 -8.44,16.48 -8.30,16.64 -8.30,16.64 -8.30,16.64 -7.60,16.46 -6.90,16.29 -5.84,15.88 -4.78,15.47 -3.82,14.59 -2.86,13.72 -3.41,12.60 -3.96,11.48 -5.34,10.37 -6.72,9.26 -7.55,8.59 -8.39,7.93 -9.49,6.75 -10.59,5.58 -11.09,4.36 -11.59,3.15 -11.09,1.34 -10.59,-0.46 -9.29,-1.60 -7.98,-2.75 -6.86,-3.24 -5.74,-3.74 -4.44,-3.92 -3.13,-4.10 -1.83,-3.80 -0.53,-3.50 0.06,-2.39 0.66,-1.28 0.80,-1.18 0.95,-1.08 1.06,-0.95 1.18,-0.82 1.26,-0.67 1.34,-0.51 1.39,-0.35 1.43,-0.18 1.43,-0.00 1.43,0.16 1.39,0.33 1.35,0.50 1.27,0.65 1.19,0.81 1.07,0.94 0.96,1.07 0.82,1.17 0.67,1.27 0.51,1.33 0.35,1.40 0.18,1.42 0.00,1.44 -0.16,1.42 -0.33,1.40 -0.50,1.34 -0.66,1.28 -0.66,1.28 L -0.66,1.28 Z"></path></g><g transform="translate(201.71691661706097 20.775222027313646) rotate(0 3.164566762900904 17.573746664837472)" stroke="none"><path fill="#1e1e1e" d="M 0.57,-1.74 Q 0.57,-1.74 1.72,-1.95 2.88,-2.16 3.95,-1.56 5.01,-0.97 6.76,0.32 8.51,1.61 9.43,2.76 10.36,3.90 10.98,5.14 11.60,6.37 12.02,7.86 12.44,9.35 12.62,10.82 12.79,12.28 12.70,13.91 12.60,15.54 12.11,17.33 11.63,19.12 10.94,20.80 10.26,22.47 9.34,24.26 8.42,26.05 7.19,27.82 5.96,29.58 3.37,31.44 0.78,33.29 -0.78,34.74 -2.35,36.18 -2.51,36.32 -2.68,36.45 -2.88,36.53 -3.07,36.60 -3.29,36.61 -3.50,36.62 -3.70,36.55 -3.91,36.49 -4.08,36.37 -4.25,36.25 -4.38,36.08 -4.50,35.90 -4.57,35.70 -4.63,35.50 -4.63,35.29 -4.62,35.07 -4.55,34.87 -4.48,34.67 -4.34,34.51 -4.21,34.34 -4.03,34.23 -3.86,34.11 -3.65,34.06 -3.44,34.00 -3.23,34.02 -3.02,34.04 -2.82,34.12 -2.63,34.20 -2.47,34.34 -2.31,34.48 -2.21,34.67 -2.10,34.85 -2.06,35.06 -2.02,35.27 -2.04,35.48 -2.07,35.69 -2.17,35.88 -2.26,36.07 -2.41,36.22 -2.56,36.38 -2.75,36.47 -2.94,36.57 -3.15,36.60 -3.36,36.63 -3.57,36.59 -3.78,36.55 -3.96,36.45 -4.15,36.34 -4.29,36.18 -4.43,36.03 -4.52,35.83 -4.60,35.64 -4.62,35.43 -4.64,35.21 -4.59,35.01 -4.54,34.80 -4.43,34.62 -4.31,34.44 -4.31,34.44 -4.31,34.44 -3.06,32.71 -1.82,30.98 -0.60,28.54 0.61,26.09 1.54,24.54 2.46,22.99 3.26,21.45 4.05,19.90 4.61,18.57 5.17,17.23 5.54,16.10 5.91,14.97 5.96,12.94 6.01,10.91 5.58,9.30 5.15,7.70 4.02,6.40 2.89,5.11 1.94,4.27 0.99,3.43 0.21,2.59 -0.57,1.74 -0.77,1.64 -0.97,1.55 -1.14,1.41 -1.31,1.27 -1.45,1.10 -1.58,0.92 -1.67,0.72 -1.76,0.51 -1.79,0.30 -1.83,0.08 -1.81,-0.13 -1.79,-0.35 -1.73,-0.56 -1.66,-0.77 -1.54,-0.96 -1.42,-1.15 -1.26,-1.30 -1.10,-1.46 -0.91,-1.57 -0.72,-1.68 -0.51,-1.74 -0.30,-1.80 -0.08,-1.81 0.13,-1.82 0.35,-1.78 0.57,-1.74 0.57,-1.74 L 0.57,-1.74 Z"></path></g><g transform="translate(654.0276772363027 683.6117613772321) rotate(0 16.41928337787249 6.5417990751191155)" stroke="none"><path fill="#1e1e1e" d="M -1.96,-0.40 Q -1.96,-0.40 -1.92,-2.19 -1.88,-3.97 -1.34,-5.48 -0.79,-7.00 -0.24,-8.19 0.31,-9.38 1.48,-11.05 2.65,-12.72 3.42,-13.72 4.20,-14.71 5.42,-16.08 6.64,-17.45 8.00,-18.30 9.36,-19.14 11.32,-19.06 13.29,-18.97 14.20,-18.06 15.11,-17.15 15.57,-16.08 16.02,-15.00 16.30,-13.70 16.58,-12.39 16.79,-10.80 16.99,-9.21 17.13,-7.53 17.26,-5.85 17.39,-3.84 17.52,-1.83 17.71,0.25 17.89,2.34 18.12,4.37 18.35,6.40 18.76,8.40 19.17,10.40 19.59,12.31 20.01,14.22 20.54,15.82 21.06,17.42 21.69,18.96 22.31,20.49 23.04,21.66 23.77,22.83 24.46,23.78 25.16,24.73 26.41,25.53 27.66,26.33 29.88,25.90 32.11,25.46 32.28,25.34 32.46,25.22 32.67,25.17 32.87,25.11 33.08,25.13 33.29,25.14 33.49,25.22 33.69,25.30 33.85,25.44 34.01,25.57 34.12,25.76 34.23,25.94 34.27,26.15 34.32,26.36 34.29,26.57 34.27,26.78 34.18,26.97 34.09,27.16 33.94,27.32 33.79,27.47 33.61,27.57 33.42,27.67 33.21,27.70 33.00,27.73 32.79,27.70 32.58,27.66 32.39,27.56 32.20,27.46 32.06,27.30 31.91,27.15 31.83,26.96 31.74,26.76 31.72,26.55 31.69,26.34 31.74,26.13 31.79,25.93 31.90,25.74 32.01,25.56 32.17,25.43 32.33,25.29 32.53,25.21 32.73,25.13 32.94,25.12 33.15,25.11 33.36,25.17 33.56,25.23 33.74,25.35 33.91,25.47 34.04,25.64 34.17,25.81 34.24,26.01 34.30,26.21 34.30,26.43 34.30,26.64 34.23,26.84 34.16,27.04 34.03,27.21 33.90,27.38 33.90,27.38 33.90,27.38 32.00,29.87 30.10,32.37 28.64,32.46 27.19,32.56 25.95,32.22 24.72,31.88 23.56,31.22 22.40,30.56 21.24,29.51 20.08,28.47 19.22,27.28 18.37,26.10 17.41,24.47 16.45,22.85 15.76,21.09 15.07,19.33 14.48,17.43 13.89,15.53 13.48,13.56 13.07,11.60 12.64,9.32 12.21,7.05 12.00,4.95 11.80,2.84 11.63,0.67 11.47,-1.50 11.38,-3.46 11.29,-5.43 11.19,-7.00 11.10,-8.58 10.98,-9.97 10.87,-11.35 10.79,-12.45 10.71,-13.54 9.64,-12.38 8.56,-11.23 7.82,-10.32 7.08,-9.42 6.12,-8.23 5.16,-7.04 4.68,-6.07 4.20,-5.09 3.75,-3.99 3.30,-2.89 2.63,-1.24 1.96,0.40 1.88,0.63 1.81,0.86 1.68,1.06 1.55,1.27 1.37,1.43 1.20,1.60 0.99,1.72 0.78,1.84 0.54,1.91 0.31,1.98 0.07,1.98 -0.16,1.99 -0.40,1.94 -0.63,1.90 -0.85,1.79 -1.07,1.69 -1.26,1.53 -1.44,1.38 -1.59,1.19 -1.73,0.99 -1.83,0.77 -1.92,0.55 -1.96,0.31 -2.00,0.07 -1.98,-0.16 -1.96,-0.40 -1.96,-0.40 L -1.96,-0.40 Z"></path></g><g transform="translate(688.3207748749323 682.2429093899761) rotate(0 -18.301059971584664 15.179045464669002)" stroke="none"><path fill="#1e1e1e" d="M -0.09,1.41 Q -0.09,1.41 -1.41,2.11 -2.74,2.81 -4.07,3.36 -5.41,3.92 -6.33,4.59 -7.26,5.26 -8.50,6.26 -9.73,7.26 -11.30,8.65 -12.88,10.03 -14.58,11.57 -16.29,13.11 -18.22,14.86 -20.14,16.62 -22.14,18.48 -24.14,20.34 -25.92,22.03 -27.69,23.72 -29.12,25.26 -30.56,26.79 -31.47,27.91 -32.39,29.02 -32.89,29.47 -33.40,29.92 -33.30,30.11 -33.21,30.30 -33.18,30.52 -33.15,30.73 -33.19,30.93 -33.23,31.14 -33.33,31.33 -33.43,31.51 -33.59,31.66 -33.75,31.80 -33.94,31.88 -34.14,31.97 -34.35,31.99 -34.56,32.00 -34.77,31.95 -34.97,31.90 -35.15,31.79 -35.33,31.68 -35.47,31.51 -35.60,31.35 -35.67,31.15 -35.75,30.95 -35.76,30.74 -35.76,30.52 -35.70,30.32 -35.64,30.12 -35.52,29.94 -35.39,29.77 -35.22,29.65 -35.05,29.52 -34.84,29.46 -34.64,29.39 -34.43,29.40 -34.22,29.40 -34.02,29.48 -33.82,29.55 -33.65,29.68 -33.49,29.81 -33.37,29.99 -33.26,30.17 -33.20,30.38 -33.15,30.58 -33.17,30.80 -33.18,31.01 -33.27,31.20 -33.35,31.40 -33.49,31.56 -33.63,31.72 -33.82,31.82 -34.00,31.93 -34.21,31.97 -34.42,32.01 -34.63,31.98 -34.84,31.95 -35.03,31.86 -35.22,31.76 -35.37,31.62 -35.52,31.47 -35.52,31.47 -35.52,31.47 -36.42,28.29 -37.31,25.12 -36.28,23.78 -35.25,22.44 -33.69,20.75 -32.13,19.07 -30.33,17.35 -28.53,15.63 -26.51,13.74 -24.49,11.85 -22.54,10.08 -20.60,8.31 -18.85,6.74 -17.10,5.18 -15.39,3.71 -13.69,2.25 -12.23,1.13 -10.77,0.00 -9.44,-0.83 -8.10,-1.67 -6.61,-2.27 -5.11,-2.88 -3.73,-3.02 -2.35,-3.16 -1.13,-2.28 0.09,-1.41 0.26,-1.37 0.43,-1.34 0.58,-1.27 0.74,-1.20 0.87,-1.09 1.00,-0.99 1.11,-0.85 1.21,-0.72 1.28,-0.56 1.35,-0.41 1.38,-0.24 1.41,-0.07 1.40,0.09 1.39,0.26 1.33,0.42 1.28,0.59 1.19,0.73 1.10,0.88 0.98,1.00 0.86,1.12 0.71,1.20 0.57,1.29 0.40,1.34 0.24,1.39 0.07,1.40 -0.09,1.41 -0.09,1.41 L -0.09,1.41 Z"></path></g><g transform="translate(710.8121072264157 684.8941686239823) rotate(0 -6.627717297272056 17.35974088698515)" stroke="none"><path fill="#1e1e1e" d="M 0.84,2.25 Q 0.84,2.25 -0.30,2.95 -1.46,3.66 -2.68,4.76 -3.90,5.86 -5.27,7.84 -6.64,9.82 -7.62,11.60 -8.61,13.37 -9.10,15.05 -9.59,16.73 -9.86,18.36 -10.14,19.99 -10.16,21.48 -10.18,22.97 -9.91,24.17 -9.63,25.37 -8.47,26.97 -7.31,28.58 -4.80,30.33 -2.28,32.09 -0.64,32.77 0.99,33.46 1.18,33.56 1.37,33.65 1.52,33.80 1.67,33.96 1.76,34.15 1.85,34.34 1.88,34.55 1.91,34.76 1.86,34.97 1.82,35.18 1.72,35.36 1.61,35.54 1.45,35.68 1.29,35.83 1.10,35.91 0.90,35.99 0.69,36.01 0.48,36.02 0.27,35.97 0.07,35.92 -0.10,35.80 -0.28,35.69 -0.41,35.52 -0.54,35.35 -0.62,35.15 -0.69,34.95 -0.69,34.74 -0.70,34.53 -0.63,34.33 -0.57,34.12 -0.44,33.95 -0.32,33.78 -0.15,33.66 0.02,33.53 0.22,33.47 0.43,33.41 0.64,33.42 0.85,33.43 1.05,33.50 1.25,33.58 1.41,33.71 1.58,33.84 1.69,34.02 1.80,34.20 1.85,34.41 1.90,34.62 1.88,34.83 1.87,35.04 1.78,35.23 1.70,35.43 1.55,35.59 1.41,35.74 1.22,35.85 1.04,35.95 0.83,35.99 0.62,36.03 0.41,36.00 0.20,35.97 0.20,35.97 0.20,35.97 -1.53,35.59 -3.27,35.22 -6.13,35.02 -8.99,34.82 -10.52,33.83 -12.04,32.83 -13.23,31.47 -14.42,30.10 -15.21,28.41 -16.01,26.72 -16.37,24.78 -16.72,22.83 -16.65,20.84 -16.58,18.84 -16.19,16.78 -15.80,14.72 -15.00,12.46 -14.21,10.19 -12.97,8.08 -11.73,5.97 -9.70,3.47 -7.68,0.98 -5.62,-0.39 -3.57,-1.77 -2.20,-2.01 -0.84,-2.25 -0.56,-2.32 -0.28,-2.39 0.00,-2.39 0.29,-2.38 0.58,-2.31 0.86,-2.24 1.11,-2.11 1.37,-1.97 1.59,-1.78 1.80,-1.59 1.97,-1.35 2.13,-1.11 2.23,-0.83 2.34,-0.56 2.37,-0.27 2.40,0.00 2.37,0.29 2.33,0.58 2.23,0.85 2.12,1.12 1.96,1.36 1.79,1.60 1.57,1.79 1.36,1.98 1.10,2.12 0.84,2.25 0.84,2.25 L 0.84,2.25 Z"></path></g><g transform="translate(739.3751534943763 690.0247549170795) rotate(0 -1.9242809843926807 15.60528600409532)" stroke="none"><path fill="#1e1e1e" d="M 2.28,0.17 Q 2.28,0.17 2.59,1.46 2.89,2.74 2.74,4.15 2.60,5.56 2.38,7.12 2.16,8.68 1.88,10.56 1.61,12.44 1.32,14.34 1.03,16.25 0.75,18.20 0.48,20.16 0.26,21.91 0.04,23.66 -0.12,25.17 -0.29,26.69 -0.41,27.90 -0.54,29.11 -0.72,29.43 -0.91,29.75 -0.71,29.83 -0.52,29.91 -0.35,30.05 -0.19,30.19 -0.08,30.37 0.02,30.55 0.06,30.76 0.11,30.97 0.09,31.18 0.06,31.39 -0.02,31.58 -0.11,31.77 -0.25,31.93 -0.40,32.08 -0.58,32.18 -0.77,32.28 -0.98,32.32 -1.19,32.35 -1.40,32.32 -1.61,32.28 -1.80,32.18 -1.99,32.08 -2.13,31.93 -2.28,31.77 -2.37,31.58 -2.46,31.39 -2.48,31.18 -2.50,30.97 -2.46,30.76 -2.41,30.55 -2.30,30.37 -2.19,30.19 -2.03,30.05 -1.87,29.91 -1.67,29.83 -1.47,29.75 -1.26,29.74 -1.05,29.73 -0.85,29.79 -0.64,29.85 -0.46,29.96 -0.29,30.08 -0.16,30.25 -0.03,30.42 0.03,30.62 0.09,30.83 0.09,31.04 0.09,31.25 0.03,31.45 -0.03,31.65 -0.16,31.82 -0.29,31.99 -0.46,32.11 -0.64,32.23 -0.85,32.29 -1.05,32.34 -1.26,32.33 -1.47,32.32 -1.47,32.32 -1.47,32.32 -4.16,30.46 -6.85,28.60 -6.77,27.29 -6.69,25.98 -6.52,24.42 -6.35,22.87 -6.13,21.06 -5.91,19.25 -5.63,17.26 -5.34,15.27 -5.05,13.37 -4.76,11.46 -4.46,9.60 -4.17,7.73 -3.92,6.23 -3.68,4.74 -3.48,3.50 -3.29,2.26 -2.79,1.04 -2.28,-0.17 -2.23,-0.45 -2.18,-0.72 -2.06,-0.97 -1.94,-1.22 -1.76,-1.43 -1.59,-1.65 -1.37,-1.81 -1.15,-1.98 -0.89,-2.09 -0.64,-2.20 -0.37,-2.24 -0.09,-2.29 0.17,-2.27 0.45,-2.25 0.71,-2.16 0.97,-2.07 1.21,-1.93 1.44,-1.78 1.64,-1.58 1.83,-1.38 1.97,-1.14 2.11,-0.90 2.18,-0.63 2.26,-0.37 2.27,-0.09 2.28,0.17 2.28,0.17 L 2.28,0.17 Z"></path></g><g transform="translate(753.9987699619087 706.7009313859232) rotate(0 -2.052464270702103 9.962540949419235)" stroke="none"><path fill="#1e1e1e" d="M 2.12,0.31 Q 2.12,0.31 2.27,2.39 2.42,4.47 1.78,7.20 1.14,9.93 0.69,11.70 0.24,13.46 -0.04,14.83 -0.34,16.19 -1.40,17.41 -2.47,18.63 -2.52,18.78 -2.56,18.93 -2.65,19.07 -2.73,19.20 -2.84,19.31 -2.96,19.42 -3.09,19.50 -3.23,19.58 -3.38,19.63 -3.53,19.67 -3.69,19.68 -3.85,19.69 -4.00,19.66 -4.16,19.63 -4.30,19.56 -4.45,19.50 -4.57,19.40 -4.69,19.30 -4.79,19.18 -4.89,19.05 -4.95,18.90 -5.01,18.76 -5.04,18.60 -5.07,18.45 -5.06,18.29 -5.05,18.13 -4.95,17.89 -4.85,17.65 -4.71,17.50 -4.56,17.34 -4.37,17.24 -4.19,17.14 -3.98,17.10 -3.77,17.07 -3.56,17.10 -3.35,17.13 -3.16,17.23 -2.97,17.33 -2.82,17.48 -2.68,17.63 -2.59,17.83 -2.49,18.02 -2.47,18.23 -2.45,18.44 -2.49,18.65 -2.53,18.86 -2.64,19.04 -2.75,19.22 -2.91,19.36 -3.07,19.50 -3.27,19.58 -3.46,19.66 -3.68,19.67 -3.89,19.69 -4.09,19.63 -4.30,19.58 -4.48,19.46 -4.65,19.34 -4.78,19.17 -4.91,19.01 -4.98,18.80 -5.05,18.60 -5.05,18.39 -5.06,18.18 -4.99,17.98 -4.92,17.77 -4.80,17.60 -4.67,17.43 -4.49,17.31 -4.32,17.19 -4.11,17.13 -3.91,17.08 -3.70,17.09 -3.49,17.10 -3.29,17.17 -3.09,17.25 -2.93,17.39 -2.76,17.52 -2.65,17.70 -2.54,17.88 -2.49,18.09 -2.45,18.30 -2.47,18.51 -2.49,18.72 -2.48,18.68 -2.47,18.63 -2.52,18.78 -2.56,18.93 -2.65,19.06 -2.73,19.20 -2.84,19.31 -2.96,19.42 -3.09,19.50 -3.23,19.58 -3.38,19.63 -3.53,19.67 -3.69,19.68 -3.85,19.69 -4.00,19.66 -4.16,19.63 -4.30,19.56 -4.45,19.50 -4.57,19.40 -4.69,19.30 -4.79,19.18 -4.89,19.05 -4.95,18.90 -5.01,18.76 -5.04,18.60 -5.07,18.45 -5.06,18.29 -5.05,18.13 -5.75,16.50 -6.45,14.87 -6.14,13.40 -5.83,11.93 -5.38,10.16 -4.93,8.39 -4.27,5.98 -3.61,3.57 -2.86,1.63 -2.12,-0.31 -2.05,-0.56 -1.98,-0.81 -1.85,-1.03 -1.73,-1.26 -1.55,-1.45 -1.37,-1.64 -1.16,-1.78 -0.94,-1.92 -0.70,-2.00 -0.45,-2.09 -0.20,-2.11 0.05,-2.14 0.31,-2.10 0.56,-2.06 0.80,-1.96 1.04,-1.87 1.25,-1.71 1.46,-1.56 1.62,-1.36 1.79,-1.17 1.90,-0.93 2.02,-0.70 2.07,-0.45 2.13,-0.20 2.12,0.05 2.12,0.31 2.12,0.31 L 2.12,0.31 Z"></path></g><g transform="translate(759.8140215751578 693.0182510805519) rotate(0 2.6087548433256416 5.1311606767549165)" stroke="none"><path fill="#1e1e1e" d="M 2.34,-1.17 Q 2.34,-1.17 3.10,0.03 3.86,1.24 4.34,2.29 4.82,3.34 5.12,5.23 5.42,7.12 5.49,7.30 5.56,7.48 5.58,7.67 5.61,7.86 5.58,8.05 5.56,8.24 5.49,8.43 5.42,8.61 5.32,8.76 5.21,8.92 5.06,9.05 4.92,9.18 4.75,9.27 4.58,9.36 4.39,9.41 4.20,9.45 4.01,9.45 3.82,9.45 3.63,9.41 3.44,9.36 3.27,9.27 3.10,9.19 2.96,9.06 2.81,8.93 2.70,8.77 2.59,8.61 0.71,4.60 -1.17,0.59 -1.23,0.39 -1.29,0.19 -1.29,-0.02 -1.29,-0.23 -1.22,-0.43 -1.15,-0.63 -1.01,-0.80 -0.88,-0.96 -0.70,-1.08 -0.53,-1.20 -0.32,-1.25 -0.12,-1.30 0.09,-1.29 0.30,-1.27 0.49,-1.19 0.69,-1.11 0.85,-0.97 1.01,-0.83 1.12,-0.64 1.22,-0.46 1.27,-0.25 1.31,-0.04 1.28,0.16 1.25,0.37 1.16,0.56 1.07,0.75 0.92,0.90 0.77,1.05 0.58,1.15 0.39,1.25 0.18,1.28 -0.02,1.31 -0.23,1.27 -0.43,1.23 -0.62,1.13 -0.81,1.03 -0.95,0.87 -1.09,0.71 -1.18,0.52 -1.27,0.33 -1.29,0.11 -1.31,-0.09 -1.26,-0.29 -1.21,-0.50 -1.09,-0.68 -0.98,-0.86 -0.82,-1.00 -0.65,-1.13 -0.45,-1.21 -0.26,-1.28 -0.04,-1.29 0.16,-1.30 0.36,-1.24 0.57,-1.18 0.74,-1.06 0.91,-0.93 1.04,-0.76 1.17,-0.59 1.17,-0.59 1.17,-0.59 3.29,3.26 5.42,7.12 5.49,7.30 5.56,7.48 5.58,7.67 5.61,7.86 5.58,8.05 5.56,8.24 5.49,8.43 5.42,8.61 5.32,8.76 5.21,8.92 5.06,9.05 4.92,9.18 4.75,9.27 4.58,9.36 4.39,9.41 4.20,9.45 4.01,9.45 3.82,9.45 3.63,9.41 3.44,9.36 3.27,9.27 3.10,9.19 2.96,9.06 2.81,8.93 2.70,8.77 2.59,8.61 1.26,7.27 -0.07,5.93 -0.69,4.88 -1.32,3.84 -1.83,2.50 -2.34,1.17 -2.45,0.87 -2.55,0.57 -2.59,0.26 -2.62,-0.05 -2.57,-0.36 -2.53,-0.67 -2.41,-0.97 -2.29,-1.26 -2.11,-1.52 -1.92,-1.77 -1.68,-1.98 -1.44,-2.18 -1.16,-2.32 -0.88,-2.47 -0.57,-2.54 -0.26,-2.61 0.05,-2.60 0.36,-2.59 0.67,-2.51 0.97,-2.43 1.25,-2.28 1.53,-2.12 1.76,-1.91 1.99,-1.70 2.17,-1.43 2.34,-1.17 2.34,-1.17 L 2.34,-1.17 Z"></path></g><g transform="translate(777.3463168860208 713.5420322120849) rotate(0 -1.9676469505602654 17.316757843256255)" stroke="none"><path fill="#1e1e1e" d="M -1.66,0.06 Q -1.66,0.06 -2.24,-1.01 -2.81,-2.09 -3.82,-2.68 -4.83,-3.27 -5.54,-2.48 -6.24,-1.68 -6.66,-0.24 -7.07,1.18 -6.43,0.04 -5.78,-1.10 -5.39,-1.65 -5.00,-2.19 -4.73,-2.45 -4.47,-2.71 -4.15,-2.90 -3.83,-3.09 -3.48,-3.20 -3.12,-3.31 -2.75,-3.33 -2.38,-3.35 -2.01,-3.28 -1.65,-3.21 -1.31,-3.05 -0.97,-2.90 -0.68,-2.67 -0.39,-2.44 -0.17,-2.14 0.05,-1.85 0.20,-1.51 0.35,-1.17 0.41,-0.80 0.48,-0.44 0.45,-0.07 0.43,0.29 0.31,0.65 0.20,1.00 0.01,1.32 -0.18,1.63 -0.24,3.74 -0.30,5.84 -0.50,7.22 -0.69,8.60 -0.92,10.23 -1.15,11.86 -1.43,13.96 -1.71,16.05 -2.00,18.21 -2.29,20.37 -2.60,22.47 -2.90,24.58 -3.17,26.71 -3.44,28.84 -3.59,30.66 -3.73,32.47 -3.85,34.09 -3.97,35.71 -3.99,36.84 -4.02,37.97 -3.73,36.29 -3.44,34.60 -2.52,33.64 -1.61,32.68 -0.74,31.71 0.12,30.74 0.98,29.90 1.84,29.06 3.63,27.80 5.41,26.53 5.56,26.38 5.71,26.22 5.89,26.13 6.08,26.03 6.29,25.99 6.50,25.96 6.71,26.00 6.92,26.03 7.11,26.13 7.30,26.23 7.44,26.39 7.59,26.55 7.67,26.74 7.76,26.93 7.78,27.14 7.80,27.36 7.76,27.56 7.71,27.77 7.60,27.95 7.49,28.13 7.33,28.27 7.16,28.40 6.96,28.48 6.77,28.56 6.55,28.57 6.34,28.58 6.14,28.52 5.93,28.46 5.76,28.34 5.58,28.22 5.46,28.05 5.33,27.88 5.26,27.68 5.20,27.48 5.20,27.27 5.20,27.05 5.27,26.85 5.34,26.65 5.47,26.48 5.60,26.31 5.77,26.20 5.95,26.08 6.16,26.02 6.36,25.97 6.57,25.98 6.79,25.99 6.98,26.07 7.18,26.15 7.34,26.29 7.50,26.43 7.61,26.61 7.72,26.80 7.76,27.01 7.81,27.21 7.78,27.42 7.76,27.64 7.67,27.83 7.58,28.02 7.58,28.02 7.58,28.02 6.94,30.28 6.30,32.53 5.63,33.65 4.97,34.77 4.08,35.91 3.20,37.05 2.25,38.15 1.29,39.25 0.33,40.23 -0.63,41.22 -1.90,42.22 -3.16,43.22 -4.70,43.49 -6.24,43.75 -7.73,42.99 -9.22,42.23 -9.76,41.16 -10.31,40.08 -10.47,38.94 -10.63,37.79 -10.58,36.50 -10.53,35.21 -10.39,33.50 -10.25,31.80 -10.01,29.89 -9.76,27.97 -9.45,25.82 -9.13,23.66 -8.82,21.58 -8.51,19.50 -8.19,17.36 -7.87,15.22 -7.59,13.11 -7.30,11.00 -7.07,9.36 -6.84,7.72 -6.64,6.32 -6.43,4.92 -6.25,3.77 -6.08,2.61 -5.85,1.52 -5.61,0.43 -5.31,-0.87 -5.00,-2.19 -4.73,-2.45 -4.47,-2.71 -4.15,-2.90 -3.83,-3.09 -3.48,-3.20 -3.12,-3.31 -2.75,-3.33 -2.38,-3.35 -2.01,-3.28 -1.65,-3.21 -1.31,-3.05 -0.98,-2.90 -0.68,-2.67 -0.39,-2.44 -0.17,-2.14 0.05,-1.85 0.20,-1.51 0.35,-1.17 0.41,-0.80 0.48,-0.44 0.45,-0.07 0.43,0.29 0.31,0.65 0.20,1.00 0.01,1.32 -0.18,1.63 -0.94,2.60 -1.70,3.58 -3.17,4.99 -4.64,6.40 -5.79,6.93 -6.95,7.47 -8.11,7.45 -9.27,7.43 -10.36,6.87 -11.45,6.31 -12.17,5.26 -12.89,4.21 -13.09,3.06 -13.30,1.91 -13.18,0.81 -13.07,-0.28 -12.75,-1.48 -12.44,-2.67 -11.89,-3.87 -11.35,-5.07 -10.48,-6.18 -9.61,-7.29 -8.55,-7.95 -7.49,-8.62 -6.08,-8.93 -4.67,-9.24 -2.82,-8.67 -0.98,-8.09 -0.03,-7.33 0.91,-6.56 1.55,-5.52 2.20,-4.49 2.42,-3.41 2.64,-2.34 2.15,-1.20 1.66,-0.06 1.65,0.13 1.63,0.33 1.57,0.52 1.50,0.71 1.40,0.88 1.29,1.05 1.14,1.19 1.00,1.33 0.82,1.43 0.65,1.53 0.45,1.59 0.26,1.64 0.06,1.65 -0.13,1.66 -0.33,1.62 -0.53,1.58 -0.71,1.49 -0.89,1.41 -1.05,1.28 -1.20,1.15 -1.32,0.99 -1.44,0.83 -1.52,0.64 -1.60,0.46 -1.63,0.26 -1.66,0.06 -1.66,0.06 L -1.66,0.06 Z"></path></g><g transform="translate(798.7258339371342 696.2679223554235) rotate(0 -1.9669768362928153 22.319352311263515)" stroke="none"><path fill="#1e1e1e" d="M 1.59,-1.31 Q 1.59,-1.31 2.83,-0.47 4.07,0.36 5.03,1.68 5.98,3.00 6.82,4.64 7.67,6.28 8.37,8.19 9.07,10.10 9.56,12.12 10.05,14.13 10.30,16.29 10.56,18.45 10.60,20.52 10.64,22.60 10.35,24.68 10.06,26.76 9.52,28.80 8.99,30.83 8.22,32.71 7.45,34.58 6.45,36.25 5.45,37.91 4.01,39.52 2.56,41.13 0.92,42.38 -0.71,43.63 -3.93,44.19 -7.14,44.74 -9.09,45.38 -11.03,46.02 -11.24,46.07 -11.45,46.12 -11.66,46.10 -11.87,46.08 -12.06,45.99 -12.26,45.91 -12.41,45.76 -12.57,45.62 -12.67,45.43 -12.78,45.25 -12.82,45.04 -12.85,44.83 -12.82,44.62 -12.79,44.41 -12.70,44.22 -12.60,44.03 -12.45,43.88 -12.30,43.73 -12.11,43.64 -11.91,43.55 -11.70,43.52 -11.49,43.49 -11.28,43.53 -11.08,43.58 -10.89,43.68 -10.71,43.79 -10.57,43.95 -10.43,44.11 -10.34,44.30 -10.26,44.50 -10.25,44.71 -10.23,44.92 -10.29,45.13 -10.34,45.34 -10.45,45.51 -10.57,45.69 -10.74,45.82 -10.90,45.95 -11.10,46.03 -11.30,46.10 -11.52,46.10 -11.73,46.10 -11.93,46.04 -12.13,45.98 -12.31,45.85 -12.48,45.73 -12.60,45.55 -12.72,45.38 -12.78,45.17 -12.84,44.97 -12.84,44.76 -12.83,44.55 -12.75,44.35 -12.68,44.15 -12.54,43.98 -12.41,43.82 -12.23,43.71 -12.05,43.59 -12.05,43.59 -12.05,43.59 -10.23,42.65 -8.41,41.71 -6.54,40.13 -4.66,38.55 -3.50,37.58 -2.34,36.60 -1.29,35.50 -0.25,34.40 0.50,33.18 1.26,31.97 1.89,30.52 2.52,29.06 3.00,27.38 3.47,25.70 3.76,24.17 4.06,22.63 4.07,20.86 4.08,19.09 3.94,17.31 3.80,15.53 3.46,13.83 3.11,12.13 2.62,10.54 2.13,8.96 1.55,7.66 0.97,6.35 0.27,5.21 -0.42,4.07 -1.00,2.69 -1.59,1.31 -1.72,1.10 -1.86,0.89 -1.94,0.65 -2.02,0.42 -2.04,0.17 -2.06,-0.07 -2.02,-0.32 -1.98,-0.56 -1.88,-0.79 -1.79,-1.02 -1.64,-1.22 -1.49,-1.42 -1.30,-1.58 -1.11,-1.74 -0.88,-1.84 -0.66,-1.95 -0.41,-2.00 -0.17,-2.05 0.07,-2.04 0.32,-2.03 0.56,-1.97 0.80,-1.90 1.01,-1.77 1.23,-1.65 1.41,-1.48 1.59,-1.31 1.59,-1.31 L 1.59,-1.31 Z"></path></g><g transform="translate(14.515709464182464 674.9740841999387) rotate(0 314.1543072629198 -302.08612368914305)" stroke="none"><path fill="#846358" d="M 0.53,-1.59 Q 0.53,-1.59 1.24,-1.75 1.95,-1.91 3.24,-1.85 4.53,-1.79 5.83,-1.67 7.12,-1.55 8.24,-1.55 9.37,-1.55 10.74,-1.97 12.12,-2.38 13.22,-2.86 14.32,-3.33 15.73,-3.76 17.15,-4.18 18.31,-4.57 19.47,-4.97 20.84,-5.46 22.20,-5.96 23.64,-6.45 25.08,-6.94 26.56,-7.49 28.04,-8.03 29.59,-8.60 31.14,-9.17 32.16,-9.48 33.19,-9.79 34.91,-10.32 36.63,-10.84 38.38,-11.43 40.12,-12.02 42.04,-12.68 43.95,-13.34 45.92,-14.00 47.88,-14.66 49.81,-15.31 51.75,-15.95 52.81,-16.30 53.87,-16.64 54.89,-16.97 55.91,-17.30 58.00,-17.96 60.09,-18.62 61.19,-18.95 62.28,-19.28 63.44,-19.63 64.59,-19.97 65.76,-20.30 66.92,-20.63 67.98,-21.01 69.04,-21.39 70.23,-21.84 71.43,-22.29 72.64,-22.67 73.85,-23.05 74.96,-23.48 76.06,-23.91 77.29,-24.32 78.53,-24.72 79.58,-25.13 80.64,-25.54 81.78,-26.02 82.91,-26.51 84.12,-26.99 85.32,-27.46 86.51,-27.87 87.69,-28.28 88.89,-28.74 90.10,-29.20 91.15,-29.68 92.21,-30.16 93.43,-30.67 94.66,-31.17 95.96,-31.67 97.27,-32.17 98.43,-32.68 99.59,-33.19 100.91,-33.69 102.24,-34.19 103.52,-34.73 104.80,-35.27 106.13,-35.79 107.46,-36.31 108.73,-36.88 110.00,-37.45 111.32,-38.09 112.64,-38.73 113.92,-39.36 115.19,-40.00 116.67,-40.68 118.14,-41.36 119.50,-42.05 120.86,-42.73 122.22,-43.45 123.59,-44.17 125.26,-44.92 126.93,-45.66 128.45,-46.37 129.96,-47.09 131.44,-47.84 132.92,-48.59 134.55,-49.39 136.18,-50.19 137.70,-50.99 139.23,-51.80 140.82,-52.64 142.42,-53.47 144.07,-54.32 145.72,-55.17 147.29,-56.02 148.86,-56.87 150.53,-57.83 152.20,-58.80 153.89,-59.79 155.59,-60.79 157.29,-61.77 158.99,-62.76 160.86,-63.83 162.72,-64.90 164.51,-65.91 166.31,-66.91 168.04,-67.87 169.77,-68.83 171.62,-69.88 173.48,-70.93 175.31,-71.92 177.15,-72.90 178.92,-73.89 180.68,-74.88 182.59,-75.97 184.51,-77.05 186.35,-78.13 188.18,-79.20 190.05,-80.34 191.93,-81.47 193.81,-82.65 195.70,-83.82 197.56,-84.99 199.43,-86.15 201.44,-87.40 203.45,-88.65 205.39,-89.85 207.33,-91.05 209.34,-92.26 211.35,-93.48 213.39,-94.71 215.44,-95.94 217.39,-97.14 219.35,-98.34 221.43,-99.63 223.50,-100.91 225.45,-102.19 227.40,-103.46 229.33,-104.75 231.27,-106.04 233.34,-107.40 235.42,-108.77 237.36,-110.09 239.30,-111.40 241.17,-112.73 243.03,-114.06 244.98,-115.46 246.93,-116.86 248.74,-118.17 250.55,-119.48 252.36,-120.83 254.17,-122.17 256.00,-123.59 257.83,-125.01 259.56,-126.34 261.30,-127.68 263.13,-129.12 264.96,-130.56 266.74,-132.00 268.51,-133.45 270.17,-134.82 271.82,-136.19 273.49,-137.67 275.15,-139.15 276.73,-140.54 278.31,-141.93 279.82,-143.23 281.33,-144.53 282.87,-145.91 284.42,-147.29 285.88,-148.63 287.34,-149.96 288.80,-151.32 290.26,-152.67 291.74,-154.11 293.21,-155.55 294.58,-156.94 295.95,-158.33 297.31,-159.78 298.68,-161.24 300.02,-162.73 301.36,-164.22 302.66,-165.70 303.95,-167.18 305.34,-168.78 306.73,-170.38 308.05,-171.93 309.37,-173.47 311.52,-175.95 313.66,-178.43 315.25,-180.30 316.84,-182.16 318.29,-183.84 319.74,-185.52 321.15,-187.22 322.56,-188.92 323.88,-190.55 325.20,-192.18 326.52,-193.76 327.83,-195.33 329.12,-196.87 330.41,-198.42 331.66,-199.89 332.92,-201.37 334.17,-202.89 335.41,-204.40 336.63,-205.92 337.84,-207.43 338.98,-208.90 340.12,-210.37 341.34,-211.93 342.55,-213.50 343.69,-215.00 344.83,-216.50 345.88,-217.99 346.93,-219.47 348.05,-221.11 349.17,-222.75 350.21,-224.30 351.25,-225.85 352.27,-227.38 353.28,-228.92 354.35,-230.51 355.41,-232.10 356.42,-233.66 357.43,-235.22 358.46,-236.84 359.49,-238.46 360.47,-240.03 361.45,-241.59 362.42,-243.15 363.39,-244.70 364.36,-246.33 365.34,-247.96 366.24,-249.51 367.14,-251.06 368.09,-252.68 369.05,-254.30 370.00,-255.87 370.95,-257.43 371.83,-258.93 372.72,-260.43 373.68,-262.07 374.65,-263.70 375.59,-265.33 376.53,-266.95 377.43,-268.49 378.32,-270.02 379.79,-272.67 381.26,-275.31 383.06,-278.47 384.87,-281.63 386.18,-283.92 387.50,-286.21 388.66,-288.23 389.82,-290.25 390.96,-292.21 392.09,-294.17 393.16,-296.01 394.24,-297.85 395.30,-299.75 396.37,-301.66 397.48,-303.59 398.59,-305.53 399.64,-307.34 400.69,-309.16 401.80,-311.09 402.91,-313.03 404.02,-314.90 405.13,-316.77 406.19,-318.56 407.25,-320.35 408.39,-322.29 409.53,-324.22 410.61,-326.13 411.69,-328.05 412.78,-330.04 413.87,-332.04 415.07,-334.15 416.26,-336.27 417.38,-338.29 418.49,-340.30 419.64,-342.39 420.79,-344.48 421.96,-346.60 423.13,-348.73 424.29,-350.78 425.44,-352.83 426.69,-355.01 427.94,-357.19 429.18,-359.28 430.42,-361.37 431.60,-363.34 432.78,-365.30 433.99,-367.38 435.20,-369.45 436.34,-371.40 437.47,-373.34 438.58,-375.24 439.68,-377.14 441.46,-380.29 443.23,-383.43 445.32,-387.09 447.41,-390.74 448.90,-393.33 450.40,-395.92 451.65,-398.10 452.90,-400.28 454.01,-402.27 455.12,-404.25 456.15,-406.09 457.19,-407.93 458.27,-409.86 459.35,-411.79 460.32,-413.57 461.28,-415.36 462.32,-417.18 463.36,-419.01 464.45,-420.85 465.53,-422.70 466.60,-424.49 467.67,-426.27 468.84,-428.16 470.00,-430.05 471.14,-431.88 472.27,-433.71 473.32,-435.50 474.38,-437.29 475.51,-439.30 476.65,-441.31 477.77,-443.24 478.90,-445.18 479.95,-447.03 480.99,-448.88 482.16,-450.87 483.33,-452.85 485.17,-455.85 487.01,-458.84 488.49,-461.22 489.96,-463.61 491.89,-466.68 493.83,-469.75 495.29,-472.08 496.76,-474.41 498.03,-476.37 499.29,-478.34 500.59,-480.36 501.90,-482.38 503.16,-484.28 504.42,-486.17 506.49,-489.24 508.57,-492.31 510.21,-494.68 511.86,-497.06 513.29,-499.08 514.72,-501.11 516.14,-503.07 517.56,-505.03 518.86,-506.80 520.16,-508.56 521.39,-510.29 522.62,-512.01 523.87,-513.71 525.12,-515.42 526.30,-516.97 527.47,-518.52 528.68,-520.16 529.89,-521.79 531.06,-523.34 532.24,-524.89 533.38,-526.34 534.51,-527.79 535.76,-529.30 537.00,-530.82 538.15,-532.23 539.30,-533.64 540.47,-535.03 541.64,-536.41 542.87,-537.86 544.11,-539.30 545.30,-540.70 546.49,-542.10 547.75,-543.56 549.02,-545.02 550.34,-546.53 551.66,-548.04 553.00,-549.53 554.33,-551.03 555.75,-552.50 557.17,-553.98 558.53,-555.35 559.88,-556.72 562.05,-558.76 564.23,-560.80 565.81,-562.32 567.40,-563.85 569.49,-565.84 571.58,-567.84 573.13,-569.32 574.67,-570.80 576.05,-572.11 577.43,-573.41 578.73,-574.57 580.03,-575.74 581.22,-576.80 582.40,-577.85 583.66,-578.92 584.91,-579.99 586.10,-580.95 587.29,-581.90 588.45,-582.76 589.61,-583.62 590.70,-584.43 591.80,-585.23 592.82,-586.00 593.85,-586.77 594.92,-587.57 595.99,-588.38 596.99,-589.19 598.00,-590.01 599.01,-590.75 600.02,-591.50 601.09,-592.23 602.16,-592.96 603.13,-593.65 604.10,-594.34 605.03,-594.99 605.95,-595.64 607.03,-596.31 608.11,-596.97 609.04,-597.54 609.96,-598.11 611.68,-599.22 613.40,-600.33 615.07,-601.31 616.73,-602.28 618.39,-603.23 620.06,-604.18 621.27,-604.96 622.49,-605.73 623.65,-606.41 624.82,-607.08 626.13,-606.08 627.43,-605.07 627.58,-605.13 627.73,-605.19 627.89,-605.20 628.04,-605.22 628.20,-605.21 628.36,-605.19 628.51,-605.13 628.65,-605.08 628.79,-604.99 628.92,-604.90 629.02,-604.78 629.13,-604.66 629.20,-604.52 629.27,-604.38 629.31,-604.23 629.35,-604.07 629.35,-603.91 629.35,-603.76 629.31,-603.60 629.28,-603.45 629.20,-603.31 629.13,-603.17 629.03,-603.05 628.92,-602.93 628.79,-602.84 628.66,-602.75 628.92,-603.00 629.19,-603.26 629.05,-603.09 628.92,-602.93 628.74,-602.81 628.56,-602.70 628.35,-602.65 628.15,-602.60 627.93,-602.62 627.72,-602.64 627.53,-602.72 627.33,-602.81 627.18,-602.95 627.02,-603.09 626.92,-603.28 626.81,-603.46 626.77,-603.67 626.73,-603.88 626.76,-604.09 626.79,-604.30 626.89,-604.49 626.99,-604.68 627.14,-604.83 627.29,-604.98 627.48,-605.07 627.67,-605.17 627.88,-605.20 628.09,-605.22 628.30,-605.18 628.51,-605.14 628.69,-605.04 628.88,-604.93 629.02,-604.77 629.16,-604.61 629.24,-604.42 629.32,-604.22 629.34,-604.01 629.36,-603.80 629.30,-603.59 629.25,-603.38 629.14,-603.21 629.02,-603.03 628.85,-602.90 628.69,-602.76 628.49,-602.69 628.29,-602.62 628.07,-602.61 627.86,-602.61 627.66,-602.67 627.46,-602.74 627.29,-602.86 627.11,-602.99 626.99,-603.16 626.87,-603.33 626.81,-603.54 626.75,-603.74 626.75,-603.95 626.76,-604.17 627.10,-604.62 627.43,-605.07 627.58,-605.13 627.73,-605.19 627.89,-605.20 628.04,-605.22 628.20,-605.21 628.36,-605.19 628.51,-605.13 628.65,-605.08 628.79,-604.99 628.92,-604.90 629.02,-604.78 629.13,-604.66 629.20,-604.52 629.27,-604.38 629.31,-604.23 629.35,-604.07 629.35,-603.91 629.35,-603.76 629.31,-603.60 629.28,-603.45 629.20,-603.31 629.13,-603.17 629.03,-603.05 628.92,-602.93 628.79,-602.84 628.66,-602.75 627.74,-601.98 626.83,-601.21 625.69,-600.49 624.55,-599.77 623.05,-598.91 621.54,-598.05 619.83,-597.01 618.13,-595.97 616.58,-595.03 615.03,-594.09 614.11,-593.49 613.20,-592.88 612.25,-592.30 611.31,-591.71 610.40,-591.16 609.49,-590.61 608.58,-589.97 607.67,-589.33 606.65,-588.60 605.62,-587.87 604.64,-587.21 603.66,-586.54 602.76,-585.88 601.86,-585.23 600.77,-584.35 599.68,-583.47 598.60,-582.66 597.53,-581.85 596.48,-581.07 595.44,-580.29 594.35,-579.49 593.25,-578.68 592.19,-577.90 591.13,-577.11 590.01,-576.22 588.90,-575.32 587.69,-574.29 586.49,-573.26 585.31,-572.21 584.13,-571.16 582.89,-570.05 581.65,-568.94 580.29,-567.65 578.92,-566.36 577.37,-564.88 575.82,-563.40 573.73,-561.41 571.64,-559.43 570.03,-557.88 568.42,-556.32 566.33,-554.37 564.25,-552.42 562.92,-551.07 561.59,-549.72 560.25,-548.33 558.91,-546.94 557.59,-545.47 556.28,-543.99 554.96,-542.50 553.65,-541.00 552.40,-539.56 551.15,-538.13 549.95,-536.72 548.74,-535.32 547.51,-533.90 546.29,-532.48 545.15,-531.13 544.00,-529.78 542.84,-528.38 541.69,-526.97 540.48,-525.51 539.27,-524.04 538.16,-522.64 537.05,-521.23 535.90,-519.72 534.75,-518.21 533.52,-516.54 532.29,-514.88 531.13,-513.36 529.98,-511.84 528.76,-510.17 527.53,-508.50 526.27,-506.74 525.01,-504.98 523.73,-503.24 522.44,-501.50 521.04,-499.56 519.64,-497.62 518.22,-495.62 516.80,-493.63 515.17,-491.29 513.54,-488.95 511.47,-485.90 509.40,-482.85 508.16,-480.99 506.92,-479.13 505.61,-477.11 504.31,-475.10 503.05,-473.17 501.79,-471.24 500.32,-468.91 498.85,-466.58 496.93,-463.53 495.01,-460.48 493.54,-458.11 492.07,-455.73 490.26,-452.78 488.44,-449.83 487.29,-447.89 486.14,-445.96 485.07,-444.08 484.00,-442.20 482.89,-440.31 481.78,-438.41 480.61,-436.36 479.45,-434.31 478.36,-432.45 477.27,-430.60 476.14,-428.78 475.02,-426.96 473.87,-425.10 472.73,-423.24 471.67,-421.48 470.61,-419.72 469.54,-417.90 468.48,-416.08 467.46,-414.32 466.45,-412.55 465.46,-410.73 464.47,-408.91 463.38,-406.98 462.29,-405.06 461.25,-403.23 460.21,-401.40 459.09,-399.39 457.96,-397.38 456.70,-395.20 455.45,-393.01 453.96,-390.42 452.47,-387.84 450.38,-384.20 448.29,-380.57 446.49,-377.40 444.68,-374.23 443.57,-372.33 442.46,-370.43 441.33,-368.48 440.19,-366.54 438.96,-364.43 437.73,-362.33 436.56,-360.38 435.39,-358.42 434.17,-356.37 432.95,-354.31 431.71,-352.16 430.47,-350.00 429.33,-347.97 428.18,-345.94 427.01,-343.82 425.83,-341.70 424.67,-339.61 423.52,-337.52 422.39,-335.48 421.26,-333.45 420.09,-331.36 418.92,-329.28 417.81,-327.25 416.70,-325.23 415.59,-323.26 414.48,-321.30 413.34,-319.36 412.20,-317.43 411.14,-315.63 410.07,-313.82 408.98,-311.99 407.88,-310.16 406.77,-308.23 405.65,-306.29 404.60,-304.48 403.55,-302.68 402.46,-300.77 401.36,-298.86 400.27,-296.91 399.18,-294.97 398.11,-293.14 397.04,-291.31 395.91,-289.35 394.78,-287.39 393.62,-285.37 392.46,-283.36 391.15,-281.07 389.84,-278.78 388.04,-275.66 386.25,-272.54 384.75,-269.84 383.24,-267.15 382.35,-265.62 381.46,-264.09 380.51,-262.45 379.55,-260.81 378.59,-259.17 377.62,-257.54 376.72,-256.01 375.82,-254.48 374.89,-252.94 373.96,-251.40 373.01,-249.80 372.06,-248.20 371.15,-246.62 370.23,-245.03 369.23,-243.36 368.23,-241.70 367.25,-240.13 366.28,-238.55 365.29,-236.98 364.30,-235.41 363.26,-233.77 362.21,-232.13 361.18,-230.53 360.15,-228.94 359.10,-227.36 358.04,-225.77 357.01,-224.21 355.98,-222.66 354.93,-221.10 353.88,-219.54 352.73,-217.86 351.58,-216.17 350.47,-214.62 349.36,-213.06 348.21,-211.54 347.05,-210.01 345.83,-208.44 344.62,-206.88 343.45,-205.38 342.28,-203.87 341.05,-202.33 339.81,-200.78 338.54,-199.23 337.26,-197.68 336.02,-196.22 334.79,-194.77 333.50,-193.22 332.21,-191.67 330.92,-190.13 329.62,-188.59 328.28,-186.94 326.94,-185.29 325.50,-183.54 324.05,-181.80 322.60,-180.14 321.16,-178.48 319.56,-176.60 317.96,-174.72 315.83,-172.25 313.70,-169.78 312.36,-168.21 311.02,-166.65 309.62,-165.05 308.23,-163.45 306.90,-161.93 305.57,-160.41 304.18,-158.89 302.80,-157.37 301.38,-155.87 299.96,-154.37 298.55,-152.94 297.14,-151.51 295.61,-150.03 294.09,-148.56 292.61,-147.18 291.14,-145.80 289.65,-144.45 288.17,-143.10 286.58,-141.68 285.00,-140.26 283.51,-138.98 282.03,-137.70 280.46,-136.32 278.89,-134.94 277.15,-133.40 275.41,-131.86 273.73,-130.47 272.06,-129.08 270.25,-127.61 268.44,-126.15 266.58,-124.68 264.73,-123.22 263.00,-121.89 261.27,-120.56 259.40,-119.11 257.53,-117.67 255.68,-116.29 253.84,-114.92 252.03,-113.61 250.21,-112.30 248.25,-110.89 246.29,-109.47 244.37,-108.11 242.45,-106.75 240.48,-105.42 238.51,-104.08 236.44,-102.72 234.38,-101.36 232.42,-100.06 230.47,-98.75 228.46,-97.45 226.46,-96.14 224.37,-94.85 222.28,-93.55 220.31,-92.34 218.33,-91.13 216.30,-89.90 214.26,-88.68 212.27,-87.47 210.28,-86.26 208.35,-85.07 206.42,-83.89 204.41,-82.63 202.40,-81.38 200.54,-80.21 198.67,-79.05 196.76,-77.86 194.85,-76.67 192.93,-75.51 191.02,-74.34 189.15,-73.25 187.28,-72.16 185.36,-71.07 183.43,-69.97 181.62,-68.96 179.80,-67.94 178.02,-66.99 176.24,-66.04 174.37,-64.99 172.49,-63.93 170.76,-62.97 169.04,-62.01 167.27,-61.03 165.51,-60.05 163.65,-58.99 161.80,-57.92 160.11,-56.94 158.42,-55.96 156.71,-54.96 155.00,-53.96 153.26,-52.95 151.52,-51.94 149.90,-51.07 148.28,-50.20 146.65,-49.36 145.02,-48.52 143.43,-47.68 141.84,-46.85 140.24,-46.00 138.65,-45.16 137.05,-44.38 135.45,-43.59 133.89,-42.80 132.32,-42.01 130.75,-41.29 129.18,-40.56 127.68,-39.91 126.18,-39.25 124.76,-38.51 123.35,-37.77 121.90,-37.05 120.46,-36.33 119.05,-35.69 117.65,-35.04 116.36,-34.40 115.06,-33.75 113.67,-33.07 112.27,-32.40 110.87,-31.77 109.48,-31.15 108.21,-30.66 106.95,-30.16 105.56,-29.58 104.17,-28.99 102.99,-28.55 101.81,-28.12 100.51,-27.55 99.21,-26.99 97.98,-26.53 96.74,-26.08 95.61,-25.62 94.47,-25.16 93.26,-24.62 92.05,-24.07 90.76,-23.58 89.46,-23.09 88.40,-22.73 87.34,-22.37 86.20,-21.92 85.06,-21.47 83.83,-20.95 82.61,-20.43 81.42,-19.97 80.22,-19.51 79.13,-19.16 78.04,-18.81 76.76,-18.31 75.48,-17.82 74.41,-17.49 73.34,-17.17 72.10,-16.70 70.85,-16.24 69.63,-15.82 68.41,-15.39 67.27,-15.07 66.13,-14.74 64.99,-14.41 63.85,-14.08 62.78,-13.76 61.72,-13.43 59.65,-12.78 57.57,-12.12 56.56,-11.80 55.55,-11.47 54.50,-11.13 53.45,-10.79 51.52,-10.15 49.59,-9.50 47.64,-8.85 45.69,-8.20 43.79,-7.55 41.90,-6.90 40.06,-6.28 38.23,-5.67 36.48,-5.14 34.73,-4.61 33.11,-4.07 31.48,-3.54 29.94,-2.95 28.39,-2.36 26.87,-1.84 25.35,-1.32 24.02,-0.87 22.69,-0.43 21.28,0.05 19.86,0.55 18.62,0.92 17.37,1.29 16.33,1.66 15.30,2.02 13.90,2.58 12.50,3.14 10.45,3.45 8.40,3.76 7.15,3.68 5.89,3.60 4.46,3.36 3.04,3.13 1.72,2.92 0.41,2.70 -0.05,2.15 -0.53,1.59 -0.71,1.51 -0.89,1.42 -1.05,1.29 -1.21,1.16 -1.33,1.00 -1.45,0.84 -1.53,0.65 -1.61,0.47 -1.64,0.27 -1.68,0.07 -1.66,-0.13 -1.64,-0.33 -1.58,-0.52 -1.52,-0.71 -1.41,-0.89 -1.30,-1.06 -1.15,-1.20 -1.01,-1.34 -0.83,-1.44 -0.66,-1.54 -0.46,-1.60 -0.27,-1.66 -0.06,-1.66 0.13,-1.67 0.33,-1.63 0.53,-1.59 0.53,-1.59 L 0.53,-1.59 Z"></path></g><g transform="translate(212.83439950649347 179.23685566805347) rotate(0 2.3116548963048444 -3.164016311895466)" stroke="none"><path fill="#1e1e1e" d="M -1.34,0.36 Q -1.34,0.36 -2.22,-0.38 -3.10,-1.12 -3.35,-2.45 -3.60,-3.78 -3.50,-5.21 -3.41,-6.65 -2.95,-8.04 -2.48,-9.43 -1.75,-10.51 -1.02,-11.60 0.21,-12.61 1.44,-13.62 2.84,-14.29 4.25,-14.95 6.08,-14.77 7.92,-14.60 9.29,-13.36 10.66,-12.13 11.46,-10.71 12.26,-9.29 12.70,-7.59 13.15,-5.89 13.19,-4.20 13.23,-2.52 12.55,-0.50 11.88,1.51 10.52,2.97 9.16,4.44 7.27,5.43 5.37,6.42 4.31,6.69 3.24,6.95 1.11,6.95 -1.01,6.95 -2.14,6.39 -3.28,5.83 -4.62,4.24 -5.95,2.65 -6.31,1.60 -6.68,0.56 -6.86,-1.33 -7.04,-3.22 -6.81,-4.35 -6.57,-5.48 -6.05,-6.63 -5.53,-7.77 -4.83,-8.75 -4.13,-9.72 -3.42,-10.55 -2.71,-11.38 -1.65,-12.18 -0.59,-12.98 0.40,-13.47 1.40,-13.95 2.51,-14.20 3.61,-14.45 4.85,-14.36 6.09,-14.27 7.32,-13.72 8.55,-13.16 9.55,-12.14 10.55,-11.13 11.11,-10.11 11.68,-9.09 12.24,-7.09 12.81,-5.09 12.84,-3.14 12.87,-1.19 12.62,-0.11 12.37,0.96 10.94,3.04 9.52,5.12 8.55,5.73 7.58,6.35 6.42,6.65 5.26,6.95 3.93,6.68 2.59,6.42 1.61,5.68 0.63,4.95 -0.10,3.90 -0.84,2.85 -1.54,0.73 -2.24,-1.38 -2.37,-3.25 -2.51,-5.12 -2.39,-6.77 -2.28,-8.41 -2.12,-9.81 -1.96,-11.20 -0.57,-10.82 0.80,-10.45 1.52,-8.99 2.23,-7.53 2.46,-6.01 2.68,-4.48 3.34,-3.14 4.00,-1.79 4.82,-0.78 5.65,0.23 6.12,-1.13 6.59,-2.50 6.19,-3.50 5.80,-4.50 5.00,-3.52 4.20,-2.54 5.17,-1.88 6.15,-1.23 5.89,-2.60 5.63,-3.97 4.88,-5.04 4.13,-6.10 5.23,-6.45 6.33,-6.79 6.42,-5.54 6.51,-4.28 7.33,-3.37 8.15,-2.46 7.29,-3.48 6.43,-4.50 5.02,-4.76 3.62,-5.02 3.64,-3.73 3.66,-2.45 4.43,-1.52 5.20,-0.58 5.95,-1.54 6.71,-2.49 5.47,-3.35 4.23,-4.21 3.25,-3.62 2.26,-3.04 2.22,-1.35 2.18,0.32 3.14,1.27 4.09,2.23 5.19,1.89 6.28,1.56 6.67,0.31 7.07,-0.92 7.14,-2.25 7.20,-3.57 6.23,-4.85 5.26,-6.13 4.30,-6.72 3.34,-7.31 2.30,-6.28 1.26,-5.25 0.96,-3.41 0.65,-1.58 1.13,-0.23 1.60,1.11 2.44,2.10 3.28,3.09 4.55,3.30 5.83,3.51 6.19,1.75 6.56,-0.01 6.58,-1.64 6.60,-3.27 5.53,-4.29 4.47,-5.30 3.24,-5.72 2.01,-6.14 1.17,-5.47 0.34,-4.80 0.32,-3.42 0.30,-2.05 0.94,-0.85 1.58,0.33 2.75,0.71 3.93,1.09 4.02,-0.35 4.11,-1.81 3.74,-3.12 3.38,-4.44 2.34,-5.09 1.31,-5.74 0.05,-5.77 -1.20,-5.79 -1.52,-4.21 -1.84,-2.62 -1.35,-1.67 -0.87,-0.71 -0.05,-0.02 0.76,0.66 1.88,-0.34 3.00,-1.36 3.47,-2.90 3.94,-4.45 3.96,-5.65 3.99,-6.85 2.88,-7.38 1.78,-7.91 0.35,-8.36 -1.07,-8.80 -1.76,-7.87 -2.45,-6.93 -2.37,-5.23 -2.29,-3.53 -1.72,-2.42 -1.16,-1.31 -0.04,-1.14 1.07,-0.96 2.14,-1.25 3.22,-1.53 3.75,-1.60 4.28,-1.66 4.45,-1.84 4.61,-2.02 4.82,-2.16 5.02,-2.30 5.25,-2.39 5.48,-2.47 5.72,-2.50 5.97,-2.53 6.21,-2.50 6.45,-2.46 6.68,-2.38 6.91,-2.29 7.11,-2.15 7.31,-2.01 7.47,-1.82 7.64,-1.64 7.75,-1.42 7.86,-1.20 7.92,-0.96 7.98,-0.72 7.97,-0.48 7.97,-0.23 7.91,0.00 7.85,0.24 7.74,0.45 7.62,0.67 3.86,0.99 0.10,1.30 -0.10,1.29 -0.31,1.27 -0.51,1.19 -0.70,1.10 -0.86,0.96 -1.02,0.82 -1.12,0.63 -1.23,0.45 -1.27,0.24 -1.31,0.03 -1.28,-0.17 -1.25,-0.38 -1.16,-0.57 -1.06,-0.76 -0.91,-0.91 -0.76,-1.06 -0.57,-1.16 -0.38,-1.25 -0.17,-1.28 0.03,-1.31 0.24,-1.27 0.45,-1.23 0.63,-1.12 0.82,-1.02 0.96,-0.86 1.10,-0.70 1.18,-0.51 1.27,-0.31 1.29,-0.10 1.30,0.10 1.25,0.31 1.20,0.51 1.09,0.69 0.97,0.87 0.81,1.00 0.64,1.14 0.44,1.21 0.24,1.28 0.03,1.29 -0.17,1.30 -0.37,1.23 -0.58,1.17 -0.75,1.05 -0.92,0.93 -1.05,0.75 -1.17,0.58 -1.23,0.38 -1.30,0.17 -1.29,-0.03 -1.29,-0.24 -1.21,-0.44 -1.14,-0.64 -1.01,-0.81 -0.87,-0.97 -0.69,-1.09 -0.52,-1.20 -0.31,-1.25 -0.10,-1.30 -0.10,-1.30 -0.10,-1.30 2.09,-1.48 4.28,-1.66 4.45,-1.84 4.61,-2.02 4.82,-2.16 5.02,-2.30 5.25,-2.39 5.48,-2.47 5.72,-2.50 5.97,-2.53 6.21,-2.50 6.45,-2.46 6.68,-2.38 6.91,-2.29 7.11,-2.15 7.31,-2.01 7.47,-1.82 7.64,-1.64 7.75,-1.42 7.86,-1.20 7.92,-0.96 7.98,-0.72 7.97,-0.48 7.97,-0.23 7.91,0.00 7.85,0.23 7.74,0.45 7.62,0.67 7.96,1.44 8.30,2.21 7.10,3.42 5.89,4.63 4.02,5.16 2.14,5.69 0.99,5.68 -0.15,5.66 -1.21,5.43 -2.27,5.21 -3.48,4.67 -4.70,4.13 -5.81,3.09 -6.93,2.06 -7.49,1.02 -8.04,-0.01 -8.50,-1.40 -8.96,-2.80 -9.09,-4.33 -9.21,-5.87 -9.06,-7.23 -8.92,-8.58 -8.51,-9.95 -8.11,-11.31 -7.27,-12.58 -6.43,-13.85 -5.19,-14.56 -3.95,-15.28 -1.65,-15.27 0.64,-15.27 1.76,-14.96 2.88,-14.64 4.13,-14.10 5.38,-13.55 6.40,-12.88 7.41,-12.21 8.38,-11.26 9.35,-10.31 9.97,-8.96 10.59,-7.61 10.66,-6.46 10.74,-5.32 10.62,-4.21 10.51,-3.11 10.21,-1.81 9.91,-0.52 9.45,0.57 8.98,1.66 8.23,2.99 7.48,4.32 6.26,5.40 5.04,6.48 3.50,6.95 1.96,7.43 0.66,7.29 -0.62,7.15 -1.81,6.66 -3.00,6.17 -4.14,5.29 -5.27,4.41 -5.99,3.44 -6.71,2.47 -7.32,1.20 -7.93,-0.05 -8.19,-1.55 -8.45,-3.06 -8.31,-4.35 -8.18,-5.64 -7.75,-6.89 -7.32,-8.13 -6.44,-9.37 -5.55,-10.60 -4.37,-11.36 -3.18,-12.12 -1.34,-12.49 0.49,-12.85 1.69,-12.59 2.90,-12.32 3.89,-11.85 4.88,-11.38 5.98,-10.66 7.07,-9.94 8.07,-8.94 9.07,-7.93 9.73,-6.67 10.39,-5.41 10.60,-4.22 10.81,-3.03 10.77,-1.96 10.73,-0.90 10.53,0.32 10.33,1.54 9.93,2.62 9.53,3.70 8.74,4.83 7.95,5.95 6.55,6.72 5.14,7.48 3.83,7.53 2.52,7.58 1.31,7.26 0.09,6.93 -1.00,6.31 -2.11,5.69 -3.12,4.68 -4.14,3.68 -4.79,2.47 -5.44,1.26 -5.88,-0.24 -6.31,-1.75 -6.33,-3.14 -6.34,-4.54 -6.07,-5.90 -5.80,-7.26 -5.25,-8.47 -4.69,-9.67 -3.89,-10.57 -3.09,-11.46 -1.86,-12.08 -0.62,-12.70 0.55,-12.79 1.74,-12.87 2.79,-12.71 3.84,-12.55 5.06,-12.17 6.29,-11.79 7.42,-11.20 8.56,-10.60 9.64,-9.69 10.73,-8.78 11.60,-7.54 12.46,-6.30 12.87,-4.97 13.28,-3.65 13.32,-2.37 13.36,-1.10 13.22,0.16 13.09,1.43 12.79,2.71 12.49,3.99 11.81,5.48 11.14,6.96 10.07,8.01 8.99,9.05 7.57,9.58 6.15,10.12 4.80,10.08 3.46,10.04 2.22,9.65 0.97,9.26 -0.22,8.52 -1.42,7.77 -2.24,6.88 -3.07,5.99 -3.76,4.89 -4.45,3.79 -5.06,2.22 -5.66,0.64 -5.78,-0.83 -5.90,-2.32 -5.72,-3.68 -5.55,-5.05 -5.20,-6.37 -4.86,-7.70 -4.37,-8.86 -3.88,-10.02 -3.05,-11.17 -2.22,-12.32 -0.98,-13.07 0.26,-13.81 2.30,-13.83 4.35,-13.84 5.41,-13.50 6.48,-13.16 7.43,-12.61 8.39,-12.07 9.36,-11.25 10.32,-10.44 11.12,-9.46 11.93,-8.48 12.58,-7.29 13.24,-6.10 13.54,-4.83 13.84,-3.56 13.82,-2.49 13.79,-1.41 13.61,-0.20 13.42,1.00 13.03,2.20 12.65,3.41 12.05,4.56 11.44,5.72 10.50,6.75 9.55,7.77 8.19,8.41 6.83,9.05 5.53,9.08 4.24,9.12 3.06,8.80 1.89,8.47 0.96,7.96 0.02,7.44 -0.90,6.66 -1.83,5.88 -2.72,4.62 -3.62,3.36 -4.00,2.00 -4.39,0.65 -4.41,-0.60 -4.44,-1.86 -4.24,-3.11 -4.04,-4.37 -2.96,-6.39 -1.87,-8.41 -0.91,-9.20 0.04,-10.00 1.08,-10.36 2.12,-10.72 3.18,-10.76 4.25,-10.81 6.22,-10.31 8.20,-9.80 9.20,-9.25 10.21,-8.70 11.02,-7.99 11.83,-7.27 12.47,-6.07 13.10,-4.88 13.22,-3.71 13.34,-2.55 12.93,-0.71 12.53,1.12 12.04,2.10 11.55,3.08 10.59,4.09 9.63,5.10 8.45,5.59 7.26,6.08 6.01,6.10 4.76,6.13 2.75,5.19 0.74,4.25 -0.02,3.47 -0.79,2.69 -1.48,1.54 -2.17,0.38 -2.52,-0.93 -2.88,-2.26 -2.87,-3.39 -2.86,-4.52 -2.64,-5.62 -2.42,-6.73 -1.92,-7.78 -1.42,-8.84 -0.53,-9.70 0.36,-10.57 1.46,-11.00 2.56,-11.43 4.28,-11.38 6.00,-11.33 7.69,-10.74 9.37,-10.15 11.03,-8.62 12.68,-7.09 13.16,-5.98 13.64,-4.87 13.57,-2.79 13.49,-0.72 12.59,0.95 11.69,2.63 10.53,3.28 9.38,3.92 8.14,3.96 6.90,4.00 5.38,3.22 3.86,2.43 3.07,1.68 2.28,0.94 1.66,0.03 1.04,-0.87 0.59,-1.95 0.13,-3.04 -0.04,-4.23 -0.22,-5.42 0.03,-7.31 0.30,-9.21 0.99,-10.28 1.68,-11.36 2.86,-11.88 4.03,-12.41 5.77,-12.03 7.52,-11.66 8.60,-10.73 9.67,-9.80 10.79,-7.80 11.91,-5.81 12.04,-4.74 12.17,-3.68 11.97,-1.97 11.76,-0.26 11.36,0.77 10.96,1.82 10.25,2.74 9.54,3.66 8.50,4.27 7.46,4.89 6.29,5.03 5.12,5.17 4.07,4.92 3.02,4.67 1.37,3.41 -0.28,2.15 -0.95,1.09 -1.61,0.04 -1.95,-1.31 -2.29,-2.67 -2.21,-3.75 -2.14,-4.83 -1.85,-5.86 -1.56,-6.90 -0.97,-7.97 -0.37,-9.04 0.41,-9.78 1.21,-10.53 2.46,-10.99 3.71,-11.46 4.77,-11.42 5.83,-11.37 7.66,-10.53 9.49,-9.69 10.33,-8.88 11.17,-8.06 11.82,-6.93 12.48,-5.80 12.76,-4.50 13.04,-3.21 12.73,-1.15 12.42,0.90 11.96,2.03 11.51,3.16 10.80,4.13 10.08,5.11 8.86,5.82 7.63,6.54 5.35,6.26 3.07,5.97 2.03,5.28 0.98,4.59 -0.24,2.98 -1.48,1.37 -2.08,0.24 -2.69,-0.88 -3.07,-2.07 -3.45,-3.26 -3.67,-4.44 -3.88,-5.61 -3.92,-6.76 -3.96,-7.90 -3.74,-9.81 -3.51,-11.72 -3.20,-12.78 -2.89,-13.83 -2.24,-14.68 -1.60,-15.53 -0.55,-15.93 0.50,-16.32 1.63,-15.93 2.77,-15.54 3.49,-13.58 4.22,-11.61 4.10,-10.47 3.98,-9.33 3.87,-7.93 3.75,-6.53 3.72,-5.21 3.69,-3.90 3.83,-2.68 3.96,-1.46 4.58,-0.36 5.20,0.72 5.98,-0.44 6.77,-1.61 6.79,-2.88 6.81,-4.15 6.56,-5.26 6.30,-6.37 5.77,-7.36 5.25,-8.34 4.07,-8.19 2.89,-8.04 1.80,-7.06 0.71,-6.07 -0.12,-4.62 -0.96,-3.17 -0.84,-1.83 -0.72,-0.48 -0.03,0.32 0.64,1.13 1.89,0.98 3.14,0.83 4.58,0.06 6.02,-0.69 6.65,-1.69 7.27,-2.69 7.28,-3.89 7.28,-5.08 6.89,-6.37 6.49,-7.66 5.61,-8.26 4.72,-8.85 3.71,-8.01 2.70,-7.17 2.33,-6.10 1.95,-5.03 2.03,-3.79 2.10,-2.55 1.72,-1.45 1.34,-0.36 1.37,-0.20 1.39,-0.03 1.38,0.13 1.36,0.30 1.30,0.45 1.25,0.61 1.16,0.75 1.06,0.90 0.94,1.01 0.82,1.12 0.67,1.21 0.52,1.29 0.36,1.33 0.20,1.38 0.03,1.38 -0.13,1.39 -0.29,1.35 -0.46,1.31 -0.61,1.24 -0.76,1.16 -0.89,1.06 -1.02,0.95 -1.12,0.81 -1.22,0.67 -1.28,0.52 -1.34,0.36 -1.34,0.36 L -1.34,0.36 Z"></path></g><g transform="translate(512.9214287398095 580.99208987469) rotate(0 0.0853438384947367 -8.038307830331291)" stroke="none"><path fill="#2f9e44" d="M -1.24,1.28 Q -1.24,1.28 -2.12,0.95 -3.00,0.63 -3.52,-0.34 -4.04,-1.32 -4.07,-3.27 -4.09,-5.23 -3.30,-6.93 -2.51,-8.63 -1.48,-9.90 -0.46,-11.16 1.15,-11.81 2.76,-12.46 3.82,-12.28 4.88,-12.11 6.06,-10.88 7.24,-9.65 7.60,-8.07 7.96,-6.48 7.69,-4.75 7.41,-3.01 6.47,-1.43 5.53,0.14 4.12,1.33 2.70,2.53 0.86,3.09 -0.98,3.65 -3.01,3.26 -5.05,2.87 -6.51,1.59 -7.96,0.32 -8.69,-1.42 -9.42,-3.17 -9.38,-5.06 -9.34,-6.95 -8.87,-8.00 -8.40,-9.06 -7.47,-10.43 -6.53,-11.81 -5.66,-12.55 -4.79,-13.28 -3.28,-14.03 -1.77,-14.77 -0.16,-14.93 1.44,-15.08 3.13,-14.54 4.81,-14.00 5.88,-13.09 6.94,-12.19 7.47,-11.07 8.00,-9.94 7.75,-8.35 7.51,-6.75 6.46,-5.60 5.42,-4.46 4.32,-3.62 3.22,-2.78 1.76,-1.89 0.31,-1.01 -1.19,-0.30 -2.70,0.40 -4.09,0.73 -5.48,1.06 -6.60,0.82 -7.73,0.57 -8.63,-0.18 -9.53,-0.94 -10.08,-2.75 -10.63,-4.55 -10.42,-5.60 -10.22,-6.65 -9.68,-7.60 -9.15,-8.55 -7.96,-9.92 -6.76,-11.28 -5.16,-12.07 -3.56,-12.85 -1.58,-12.73 0.38,-12.60 1.38,-11.99 2.38,-11.37 3.73,-9.72 5.09,-8.06 5.71,-6.44 6.33,-4.81 6.50,-3.29 6.67,-1.77 6.10,0.09 5.54,1.96 4.36,2.90 3.18,3.84 2.11,4.20 1.04,4.56 -0.23,4.54 -1.52,4.52 -2.73,4.01 -3.95,3.51 -4.82,2.87 -5.70,2.23 -6.54,1.27 -7.38,0.31 -7.98,-0.69 -8.57,-1.70 -8.93,-2.79 -9.29,-3.88 -9.37,-5.03 -9.46,-6.17 -9.05,-7.46 -8.64,-8.75 -7.17,-10.45 -5.70,-12.16 -4.78,-12.69 -3.85,-13.23 -2.83,-13.58 -1.81,-13.93 0.21,-14.01 2.24,-14.10 3.32,-13.67 4.40,-13.23 5.81,-11.66 7.21,-10.10 7.53,-8.82 7.85,-7.55 7.73,-5.55 7.61,-3.55 7.13,-2.47 6.65,-1.40 5.29,0.15 3.92,1.71 2.98,2.29 2.04,2.87 0.04,3.41 -1.95,3.95 -3.29,3.61 -4.62,3.26 -5.59,2.53 -6.55,1.79 -7.24,0.85 -7.93,-0.08 -8.37,-1.35 -8.81,-2.62 -8.95,-3.70 -9.09,-4.78 -8.90,-6.10 -8.70,-7.43 -8.22,-8.53 -7.74,-9.63 -7.06,-10.54 -6.39,-11.46 -5.58,-12.21 -4.78,-12.96 -3.82,-13.54 -2.87,-14.13 -1.83,-14.48 -0.79,-14.84 1.34,-14.85 3.48,-14.87 4.67,-14.25 5.86,-13.64 6.64,-12.79 7.41,-11.95 7.94,-10.33 8.47,-8.70 8.39,-6.50 8.31,-4.29 7.76,-3.16 7.22,-2.03 6.01,-0.79 4.81,0.45 3.17,1.33 1.53,2.21 0.21,2.59 -1.10,2.97 -2.51,2.93 -3.93,2.89 -5.30,2.17 -6.66,1.45 -7.51,0.35 -8.36,-0.74 -8.80,-1.88 -9.24,-3.03 -9.35,-4.35 -9.45,-5.67 -9.05,-7.11 -8.64,-8.55 -8.03,-9.60 -7.42,-10.65 -6.59,-11.57 -5.76,-12.49 -4.60,-13.27 -3.43,-14.06 -2.27,-14.54 -1.12,-15.02 0.07,-15.29 1.27,-15.55 3.63,-15.33 6.00,-15.10 7.13,-14.27 8.25,-13.43 8.98,-12.42 9.70,-11.40 10.12,-10.21 10.55,-9.02 10.58,-6.69 10.62,-4.37 10.13,-3.09 9.64,-1.82 9.02,-0.85 8.40,0.10 7.63,0.94 6.87,1.78 5.81,2.51 4.75,3.25 3.58,3.69 2.40,4.13 1.23,4.26 0.05,4.39 -1.47,3.87 -3.01,3.35 -4.09,2.23 -5.18,1.11 -5.85,-0.22 -6.52,-1.57 -6.94,-3.13 -7.36,-4.69 -7.51,-6.30 -7.67,-7.91 -7.35,-9.72 -7.02,-11.53 -6.24,-13.15 -5.45,-14.77 -4.44,-16.02 -3.42,-17.26 -2.18,-18.21 -0.94,-19.15 0.30,-19.71 1.55,-20.27 2.68,-20.51 3.81,-20.75 5.14,-20.58 6.47,-20.42 7.60,-19.63 8.74,-18.84 9.30,-17.66 9.86,-16.47 10.14,-14.53 10.43,-12.58 10.22,-11.27 10.01,-9.96 9.61,-8.81 9.21,-7.66 8.57,-6.57 7.93,-5.47 7.20,-4.49 6.48,-3.51 5.54,-2.64 4.61,-1.77 2.79,-0.75 0.97,0.26 -0.09,0.41 -1.16,0.56 -2.38,0.25 -3.61,-0.06 -4.47,-0.73 -5.33,-1.39 -6.04,-2.88 -6.75,-4.37 -6.22,-6.48 -5.69,-8.59 -5.71,-8.77 -5.74,-8.95 -5.72,-9.13 -5.70,-9.32 -5.64,-9.49 -5.58,-9.66 -5.47,-9.82 -5.37,-9.97 -5.24,-10.09 -5.10,-10.22 -4.94,-10.31 -4.78,-10.39 -4.60,-10.44 -4.42,-10.49 -4.24,-10.49 -4.06,-10.49 -3.88,-10.45 -3.70,-10.41 -3.53,-10.33 -3.37,-10.25 -3.23,-10.13 -3.09,-10.01 -2.98,-9.86 -2.88,-9.71 -2.81,-9.54 -2.74,-9.37 -0.77,-4.96 1.18,-0.55 1.24,-0.35 1.30,-0.14 1.29,0.06 1.28,0.27 1.20,0.47 1.12,0.67 0.99,0.83 0.85,0.99 0.67,1.10 0.49,1.21 0.28,1.26 0.07,1.31 -0.13,1.28 -0.34,1.26 -0.53,1.17 -0.73,1.09 -0.88,0.94 -1.04,0.80 -1.14,0.61 -1.24,0.42 -1.27,0.21 -1.31,0.00 -1.28,-0.20 -1.24,-0.41 -1.14,-0.60 -1.04,-0.78 -0.89,-0.93 -0.74,-1.08 -0.55,-1.17 -0.35,-1.26 -0.14,-1.28 0.06,-1.31 0.27,-1.26 0.47,-1.22 0.66,-1.11 0.84,-1.00 0.98,-0.84 1.12,-0.68 1.20,-0.48 1.28,-0.28 1.29,-0.07 1.30,0.13 1.25,0.33 1.19,0.54 1.07,0.72 0.95,0.89 0.78,1.02 0.62,1.15 0.42,1.22 0.21,1.29 0.00,1.29 -0.20,1.29 -0.40,1.23 -0.60,1.16 -0.77,1.03 -0.94,0.90 -1.06,0.73 -1.18,0.55 -1.18,0.55 -1.18,0.55 -3.44,-4.01 -5.69,-8.59 -5.71,-8.77 -5.74,-8.95 -5.72,-9.13 -5.70,-9.32 -5.64,-9.49 -5.58,-9.66 -5.47,-9.82 -5.37,-9.97 -5.24,-10.09 -5.10,-10.22 -4.94,-10.31 -4.78,-10.39 -4.60,-10.44 -4.42,-10.49 -4.24,-10.49 -4.06,-10.49 -3.88,-10.45 -3.70,-10.41 -3.53,-10.33 -3.37,-10.25 -3.23,-10.13 -3.09,-10.01 -2.98,-9.86 -2.88,-9.71 -2.81,-9.54 -2.74,-9.37 -1.78,-7.75 -0.81,-6.12 0.21,-6.83 1.23,-7.55 2.16,-8.78 3.09,-10.01 3.54,-11.15 3.99,-12.30 4.46,-13.39 4.92,-14.47 3.84,-14.21 2.76,-13.94 1.48,-12.85 0.20,-11.77 -0.54,-10.08 -1.28,-8.39 -0.96,-6.33 -0.63,-4.28 -0.37,-3.14 -0.12,-2.00 1.04,-2.34 2.20,-2.68 2.99,-3.57 3.77,-4.47 4.12,-5.83 4.46,-7.20 4.09,-8.32 3.73,-9.44 2.44,-9.26 1.16,-9.08 -0.00,-8.58 -1.17,-8.09 -2.13,-6.93 -3.09,-5.76 -2.87,-4.50 -2.64,-3.24 -1.07,-3.74 0.49,-4.24 1.44,-5.21 2.39,-6.17 2.40,-7.27 2.40,-8.36 1.32,-8.49 0.23,-8.61 -0.90,-7.72 -2.04,-6.83 -2.35,-5.57 -2.66,-4.31 -1.91,-3.48 -1.16,-2.64 -0.08,-3.46 0.99,-4.27 1.33,-5.39 1.67,-6.50 0.85,-7.23 0.04,-7.96 -1.16,-7.47 -2.36,-6.99 -2.70,-5.88 -3.05,-4.76 -2.44,-3.77 -1.83,-2.77 -0.75,-2.96 0.32,-3.15 -0.06,-4.40 -0.45,-5.64 -1.53,-6.18 -2.62,-6.73 -3.81,-6.03 -5.00,-5.33 -3.87,-5.83 -2.74,-6.34 -1.54,-7.06 -0.33,-7.78 0.90,-8.16 2.13,-8.55 0.91,-8.76 -0.31,-8.98 -1.31,-8.10 -2.31,-7.21 -2.89,-5.93 -3.47,-4.65 -2.94,-3.59 -2.41,-2.54 -1.18,-2.75 0.04,-2.97 0.83,-3.89 1.61,-4.81 2.35,-5.65 3.10,-6.49 2.31,-5.67 1.52,-4.85 1.08,-3.88 0.64,-2.91 0.94,-2.10 1.24,-1.28 1.38,-1.11 1.51,-0.95 1.61,-0.75 1.70,-0.56 1.74,-0.34 1.78,-0.13 1.77,0.07 1.76,0.29 1.70,0.50 1.64,0.70 1.53,0.89 1.42,1.08 1.27,1.23 1.12,1.39 0.94,1.50 0.76,1.62 0.55,1.68 0.35,1.75 0.13,1.77 -0.07,1.79 -0.29,1.75 -0.50,1.71 -0.70,1.63 -0.90,1.54 -1.07,1.41 -1.24,1.28 -1.24,1.28 L -1.24,1.28 Z"></path></g><g transform="translate(215.91367029620426 183.34178420945744) rotate(0 -0.5991300204378831 -5.344687801559132)" stroke="none"><path fill="#e03131" d="M -1.38,0.63 Q -1.38,0.63 -2.30,-0.01 -3.23,-0.65 -3.62,-2.52 -4.02,-4.38 -3.82,-6.32 -3.62,-8.25 -2.76,-10.03 -1.90,-11.82 -0.34,-13.05 1.21,-14.27 2.99,-14.60 4.76,-14.93 5.81,-14.70 6.86,-14.47 7.87,-13.89 8.87,-13.31 9.70,-12.27 10.52,-11.24 11.32,-9.35 12.12,-7.47 12.30,-6.26 12.48,-5.04 12.47,-3.90 12.47,-2.77 12.22,-1.62 11.97,-0.47 11.43,0.64 10.89,1.75 9.40,3.32 7.91,4.88 6.83,5.43 5.75,5.98 4.66,6.30 3.57,6.62 1.17,6.51 -1.22,6.40 -2.28,5.71 -3.35,5.02 -4.11,4.11 -4.88,3.20 -5.41,2.12 -5.95,1.04 -6.25,-0.15 -6.56,-1.35 -6.69,-2.53 -6.81,-3.71 -6.58,-5.80 -6.36,-7.89 -5.26,-9.57 -4.16,-11.26 -2.29,-11.96 -0.43,-12.66 0.66,-12.55 1.76,-12.44 2.92,-11.76 4.08,-11.08 5.31,-9.53 6.53,-7.98 7.19,-6.00 7.86,-4.01 7.98,-2.84 8.10,-1.67 8.11,-0.56 8.12,0.55 7.74,2.33 7.36,4.12 6.98,5.18 6.60,6.24 5.14,7.91 3.68,9.59 1.51,9.92 -0.65,10.26 -1.83,9.80 -3.01,9.34 -3.96,8.64 -4.91,7.95 -5.86,6.85 -6.81,5.75 -7.49,4.52 -8.18,3.30 -8.65,2.09 -9.12,0.88 -9.43,-0.51 -9.74,-1.90 -9.89,-3.07 -10.04,-4.24 -9.91,-6.38 -9.79,-8.52 -8.76,-10.36 -7.73,-12.20 -6.19,-13.19 -4.65,-14.18 -2.83,-14.44 -1.01,-14.70 0.05,-14.45 1.12,-14.20 2.17,-13.49 3.23,-12.78 4.30,-11.38 5.38,-9.98 5.76,-8.88 6.15,-7.78 6.40,-6.03 6.65,-4.29 6.51,-3.20 6.37,-2.11 5.44,-0.26 4.51,1.57 3.62,2.24 2.72,2.92 0.83,3.27 -1.05,3.63 -2.22,3.13 -3.38,2.63 -4.22,1.72 -5.06,0.82 -5.60,-0.23 -6.13,-1.28 -6.44,-2.31 -6.76,-3.33 -6.94,-4.42 -7.12,-5.51 -7.12,-7.58 -7.11,-9.66 -6.81,-10.74 -6.51,-11.81 -5.47,-13.39 -4.44,-14.96 -3.46,-15.50 -2.48,-16.04 -0.35,-15.80 1.77,-15.56 2.66,-14.70 3.54,-13.84 4.09,-12.91 4.63,-11.97 5.33,-9.99 6.04,-8.01 6.29,-5.99 6.54,-3.97 6.16,-2.04 5.78,-0.11 4.68,1.43 3.58,2.98 2.65,3.51 1.72,4.03 0.64,4.21 -0.44,4.39 -1.75,4.04 -3.06,3.69 -4.07,2.81 -5.07,1.92 -5.74,0.85 -6.40,-0.21 -6.88,-1.41 -7.36,-2.61 -7.70,-3.92 -8.03,-5.24 -8.20,-6.49 -8.37,-7.75 -8.44,-8.87 -8.50,-9.98 -8.30,-11.24 -8.11,-12.50 -7.63,-13.64 -7.14,-14.78 -5.88,-16.27 -4.62,-17.75 -3.63,-18.15 -2.64,-18.56 -0.55,-18.45 1.54,-18.35 2.59,-17.75 3.63,-17.15 5.23,-15.19 6.84,-13.22 7.27,-11.90 7.71,-10.58 7.74,-8.95 7.77,-7.31 7.34,-5.88 6.91,-4.44 6.32,-3.47 5.73,-2.49 4.70,-1.61 3.67,-0.73 2.71,-0.22 1.75,0.28 0.70,0.57 -0.33,0.86 -1.43,0.92 -2.53,0.99 -3.78,0.68 -5.02,0.37 -6.13,-0.52 -7.25,-1.42 -7.84,-2.39 -8.44,-3.35 -8.90,-5.44 -9.36,-7.53 -9.14,-8.82 -8.93,-10.11 -8.38,-11.25 -7.84,-12.38 -7.05,-13.29 -6.27,-14.21 -4.75,-15.40 -3.22,-16.58 -1.54,-17.11 0.12,-17.63 1.55,-17.63 2.97,-17.63 4.68,-16.66 6.38,-15.69 7.24,-14.54 8.10,-13.39 8.53,-12.18 8.96,-10.97 8.83,-8.22 8.70,-5.47 8.13,-4.23 7.56,-2.99 6.73,-2.02 5.90,-1.04 4.33,-0.21 2.76,0.62 1.48,0.90 0.21,1.17 -1.19,0.89 -2.61,0.61 -3.75,-0.34 -4.89,-1.30 -5.66,-3.30 -6.44,-5.30 -6.68,-6.81 -6.92,-8.33 -6.91,-9.81 -6.89,-11.29 -6.59,-12.70 -6.28,-14.10 -5.87,-15.19 -5.47,-16.27 -4.83,-17.27 -4.20,-18.26 -3.43,-19.00 -2.66,-19.73 -1.54,-20.23 -0.41,-20.73 0.97,-20.60 2.36,-20.46 3.45,-19.54 4.53,-18.63 5.12,-17.45 5.70,-16.27 6.03,-15.20 6.36,-14.14 6.52,-12.90 6.69,-11.66 6.70,-10.48 6.72,-9.31 6.54,-8.11 6.37,-6.90 5.90,-5.68 5.44,-4.45 4.90,-3.44 4.37,-2.43 3.60,-1.47 2.83,-0.50 1.88,0.25 0.94,1.01 -0.06,1.51 -1.06,2.02 -2.15,2.31 -3.24,2.60 -4.33,2.67 -5.42,2.73 -6.69,2.40 -7.96,2.07 -9.13,1.16 -10.30,0.24 -11.07,-0.79 -11.84,-1.82 -12.42,-3.02 -13.01,-4.22 -13.38,-5.68 -13.74,-7.13 -13.88,-8.43 -14.01,-9.74 -13.87,-11.12 -13.73,-12.50 -12.90,-14.28 -12.07,-16.05 -11.07,-17.13 -10.06,-18.21 -8.85,-18.86 -7.65,-19.51 -6.45,-19.77 -5.25,-20.03 -3.89,-19.88 -2.53,-19.73 -1.37,-19.25 -0.21,-18.77 0.69,-18.19 1.60,-17.61 2.39,-16.85 3.18,-16.08 4.12,-14.83 5.05,-13.57 5.51,-12.31 5.97,-11.06 5.51,-9.21 5.05,-7.35 3.48,-6.28 1.91,-5.21 0.64,-4.84 -0.61,-4.47 -1.70,-4.23 -2.78,-4.00 -4.04,-3.64 -5.30,-3.29 -7.12,-3.34 -8.94,-3.39 -9.82,-4.08 -10.71,-4.76 -11.08,-5.81 -11.44,-6.86 -11.33,-8.31 -11.23,-9.75 -10.65,-11.12 -10.08,-12.48 -9.14,-13.72 -8.20,-14.96 -7.02,-16.16 -5.84,-17.36 -4.21,-18.14 -2.58,-18.91 -0.47,-18.84 1.64,-18.76 2.84,-17.90 4.04,-17.05 4.72,-16.03 5.40,-15.01 5.85,-14.03 6.30,-13.06 6.65,-12.03 7.00,-11.01 7.22,-9.92 7.43,-8.84 7.62,-7.00 7.82,-5.17 7.55,-3.23 7.28,-1.30 6.35,0.41 5.41,2.13 3.74,3.37 2.07,4.62 0.02,4.93 -2.03,5.24 -3.22,4.79 -4.40,4.35 -5.32,3.50 -6.24,2.65 -6.86,1.45 -7.48,0.25 -7.77,-0.96 -8.06,-2.17 -8.14,-3.39 -8.22,-4.60 -8.02,-5.92 -7.83,-7.23 -7.37,-8.36 -6.92,-9.49 -6.21,-10.44 -5.49,-11.40 -4.03,-12.47 -2.56,-13.53 -0.43,-13.57 1.69,-13.60 2.63,-12.87 3.56,-12.14 4.22,-10.59 4.87,-9.04 4.24,-7.92 3.61,-6.81 2.43,-3.21 1.25,0.37 1.16,0.56 1.07,0.75 0.92,0.90 0.77,1.06 0.58,1.15 0.39,1.25 0.18,1.28 -0.02,1.31 -0.23,1.27 -0.44,1.23 -0.62,1.13 -0.81,1.03 -0.95,0.87 -1.10,0.71 -1.18,0.52 -1.27,0.32 -1.29,0.11 -1.30,-0.09 -1.26,-0.30 -1.21,-0.50 -1.09,-0.68 -0.98,-0.86 -0.82,-1.00 -0.65,-1.13 -0.45,-1.21 -0.25,-1.28 -0.04,-1.29 0.16,-1.30 0.36,-1.24 0.57,-1.18 0.74,-1.05 0.92,-0.93 1.04,-0.76 1.17,-0.59 1.23,-0.39 1.29,-0.18 1.29,0.02 1.29,0.23 1.22,0.43 1.14,0.63 1.01,0.80 0.88,0.97 0.70,1.08 0.52,1.20 0.32,1.25 0.11,1.30 -0.09,1.29 -0.30,1.27 -0.50,1.19 -0.69,1.11 -0.85,0.97 -1.01,0.83 -1.12,0.64 -1.22,0.46 -1.27,0.25 -1.31,0.04 -1.28,-0.16 -1.25,-0.37 -1.25,-0.37 -1.25,-0.37 -0.69,-4.15 -0.14,-7.92 -0.95,-7.02 -1.76,-6.11 -1.87,-4.78 -1.97,-3.44 -1.64,-2.16 -1.30,-0.87 -0.23,-1.48 0.84,-2.09 1.22,-3.44 1.60,-4.80 1.46,-6.27 1.33,-7.74 0.99,-9.14 0.66,-10.55 -0.01,-11.80 -0.69,-13.06 -1.68,-12.57 -2.66,-12.07 -3.42,-11.15 -4.17,-10.22 -4.74,-9.02 -5.30,-7.82 -6.31,-8.58 -7.31,-9.34 -6.28,-9.62 -5.25,-9.90 -4.16,-10.17 -3.08,-10.44 -1.84,-10.66 -0.60,-10.89 -1.73,-11.97 -2.85,-13.06 -4.30,-13.34 -5.74,-13.62 -6.60,-12.61 -7.47,-11.61 -7.50,-10.08 -7.54,-8.55 -7.07,-7.03 -6.61,-5.51 -5.63,-4.58 -4.66,-3.64 -3.33,-4.15 -1.99,-4.66 -1.18,-5.79 -0.38,-6.92 0.04,-8.13 0.46,-9.34 0.42,-10.87 0.39,-12.40 0.64,-13.55 0.89,-14.70 0.33,-13.67 -0.21,-12.63 -0.46,-10.94 -0.70,-9.26 -0.25,-7.21 0.19,-5.16 1.38,-6.01 2.57,-6.86 2.77,-8.03 2.97,-9.19 2.61,-10.43 2.25,-11.67 1.18,-11.49 0.11,-11.32 -0.76,-10.65 -1.65,-9.97 -2.37,-8.96 -3.09,-7.95 -2.86,-6.63 -2.64,-5.31 -1.35,-5.53 -0.07,-5.75 0.73,-6.66 1.55,-7.57 1.52,-8.82 1.49,-10.08 0.71,-11.24 -0.07,-12.39 -1.02,-11.86 -1.98,-11.32 -2.07,-9.94 -2.15,-8.56 -1.82,-6.72 -1.48,-4.88 -0.65,-3.84 0.18,-2.80 0.25,-3.91 0.33,-5.01 0.05,-6.36 -0.22,-7.71 -0.22,-9.16 -0.21,-10.61 -0.65,-9.30 -1.10,-7.98 -0.95,-6.52 -0.81,-5.06 -0.42,-3.74 -0.03,-2.42 0.21,-3.66 0.45,-4.91 0.08,-6.20 -0.29,-7.50 -1.44,-7.97 -2.60,-8.43 -3.27,-7.42 -3.94,-6.41 -3.82,-4.79 -3.69,-3.16 -3.19,-1.37 -2.69,0.41 -1.87,1.74 -1.05,3.06 -0.26,3.86 0.52,4.66 0.96,3.68 1.41,2.69 1.73,1.59 2.04,0.48 2.02,-1.07 1.99,-2.64 1.66,-3.79 1.33,-4.95 0.29,-5.33 -0.74,-5.71 -0.68,-4.22 -0.62,-2.72 -0.33,-1.61 -0.03,-0.50 1.01,0.15 2.06,0.81 3.55,0.25 5.04,-0.31 5.89,-1.65 6.75,-2.99 6.77,-4.40 6.78,-5.81 6.34,-6.98 5.89,-8.15 4.91,-8.76 3.93,-9.38 3.08,-8.71 2.22,-8.05 1.82,-7.02 1.42,-5.98 1.51,-4.42 1.61,-2.86 1.49,-1.75 1.38,-0.63 1.44,-0.46 1.49,-0.28 1.50,-0.10 1.52,0.07 1.49,0.26 1.45,0.44 1.38,0.61 1.31,0.77 1.19,0.92 1.08,1.06 0.94,1.18 0.79,1.29 0.63,1.37 0.46,1.45 0.28,1.48 0.10,1.52 -0.07,1.51 -0.26,1.50 -0.43,1.44 -0.61,1.39 -0.77,1.30 -0.93,1.20 -1.06,1.07 -1.19,0.94 -1.28,0.79 -1.38,0.63 -1.38,0.63 L -1.38,0.63 Z"></path></g></svg>